<?xml version="1.0" standalone="no"?>
<!DOCTYPE svg PUBLIC "-//W3C//DTD SVG 20010904//EN"
 "http://www.w3.org/TR/2001/REC-SVG-20010904/DTD/svg10.dtd">
<svg version="1.0" xmlns="http://www.w3.org/2000/svg"
 width="1192.000000pt" height="1192.000000pt" viewBox="0 0 1192.000000 1192.000000"
 preserveAspectRatio="xMidYMid meet">
<metadata>
Created by potrace 1.11, written by Peter Selinger 2001-2013
</metadata>
<g transform="translate(0.000000,1192.000000) scale(0.100000,-0.100000)"
fill="#000000" stroke="none">
<path d="M5928 11915 c-1 -2 -50 -6 -107 -10 -58 -3 -107 -8 -110 -9 -3 -2
-40 -7 -80 -10 -41 -4 -77 -9 -80 -11 -4 -2 -28 -6 -56 -9 -51 -6 -279 -51
-305 -60 -8 -3 -26 -7 -40 -10 -46 -8 -233 -64 -355 -105 -66 -23 -128 -43
-139 -46 -10 -2 -23 -8 -30 -13 -6 -5 -33 -17 -61 -27 -125 -45 -439 -200
-547 -271 -21 -13 -40 -24 -44 -24 -7 0 -296 -190 -304 -200 -3 -3 -41 -33
-85 -66 -44 -32 -87 -66 -96 -74 -9 -8 -27 -24 -40 -34 -137 -108 -426 -396
-539 -536 -19 -24 -40 -48 -45 -54 -11 -12 -119 -153 -150 -196 -114 -159
-240 -365 -330 -541 -97 -190 -243 -541 -259 -622 -3 -12 -13 -47 -24 -77 -11
-30 -20 -58 -21 -62 0 -5 -1 -9 -2 -10 0 -2 -2 -10 -4 -18 -10 -39 -15 -60
-34 -132 -12 -42 -23 -87 -25 -100 -3 -13 -5 -23 -6 -23 -1 0 -3 -9 -4 -20 -3
-25 -18 -115 -23 -135 -1 -8 -5 -31 -8 -50 -2 -19 -9 -66 -15 -105 -11 -79
-17 -134 -28 -250 -8 -93 -8 -587 1 -660 14 -123 20 -183 21 -227 0 -27 4 -48
8 -48 4 0 7 -8 7 -17 -1 -18 8 -78 11 -78 1 0 3 -15 6 -34 2 -19 6 -44 8 -55
19 -93 39 -183 57 -251 12 -44 22 -84 23 -90 2 -8 21 -75 43 -145 2 -8 4 -15
3 -15 -1 0 42 -119 89 -242 16 -45 40 -102 52 -125 12 -24 21 -45 21 -48 -2
-9 150 -315 165 -332 9 -10 13 -18 9 -18 -4 0 7 -20 24 -44 16 -25 30 -47 30
-49 0 -8 129 -209 145 -227 8 -9 15 -20 15 -23 0 -4 6 -15 14 -24 8 -10 43
-56 77 -103 34 -47 68 -89 74 -95 7 -5 16 -17 21 -26 10 -18 92 -115 136 -161
15 -15 26 -28 23 -28 -13 0 340 -341 405 -392 19 -15 49 -38 65 -52 17 -14 35
-30 42 -35 99 -84 494 -351 518 -351 3 0 24 -12 48 -27 60 -38 208 -113 224
-113 7 0 13 -4 13 -10 0 -5 4 -10 10 -10 5 0 33 -11 62 -24 29 -13 58 -25 63
-26 6 -1 15 -5 20 -10 13 -11 187 -79 290 -114 44 -15 87 -30 95 -33 8 -3 20
-7 25 -8 6 -2 42 -12 80 -23 158 -47 312 -83 480 -111 105 -17 250 -37 295
-40 8 0 35 -3 60 -5 25 -3 119 -8 210 -11 195 -8 174 -7 230 -6 25 0 52 1 60
1 8 0 42 2 75 4 33 3 94 7 135 10 41 3 91 8 110 10 19 3 58 7 85 10 28 3 61 7
74 10 12 3 44 8 69 11 26 3 54 7 62 10 17 5 59 13 110 21 19 3 42 8 50 11 8 3
22 7 30 8 27 3 124 26 150 35 14 5 36 11 50 14 14 2 57 15 95 27 80 26 71 23
110 34 17 4 35 10 40 14 6 3 15 6 20 8 13 2 144 50 170 62 11 5 61 26 110 47
50 21 94 41 100 46 5 4 17 8 27 8 10 0 18 5 18 10 0 6 6 10 13 10 14 0 167 78
177 89 3 3 11 7 18 9 12 2 276 157 297 174 5 4 48 35 95 67 47 33 90 64 95 68
6 5 17 14 26 19 24 13 176 135 248 199 153 134 371 355 452 459 13 16 33 40
46 54 12 13 41 49 65 80 24 32 45 59 48 62 31 27 249 363 295 452 17 32 33 58
38 58 4 0 7 9 7 19 0 11 4 22 9 26 8 4 71 122 71 132 0 1 -5 3 -11 3 -6 0 -24
9 -40 21 -16 11 -29 17 -29 13 0 -3 -7 -1 -15 6 -14 12 -170 90 -180 90 -2 0
-28 14 -57 31 -29 17 -54 31 -56 30 -5 -3 -117 53 -147 74 -16 11 -32 19 -35
18 -6 -1 -585 286 -595 295 -4 4 -10 7 -13 7 -4 0 -149 71 -323 158 -175 86
-321 157 -327 157 -5 0 -13 -12 -17 -27 -3 -14 -15 -38 -26 -51 -10 -14 -19
-29 -19 -34 0 -5 -15 -32 -33 -61 -18 -29 -36 -60 -40 -69 -3 -10 -11 -18 -17
-18 -5 0 -10 -5 -10 -11 0 -10 -75 -118 -120 -172 -50 -61 -311 -316 -329
-322 -11 -3 -21 -10 -21 -14 0 -5 -28 -28 -62 -52 -35 -24 -64 -47 -66 -51 -2
-4 -8 -8 -14 -8 -5 0 -22 -8 -36 -19 -148 -104 -498 -252 -682 -287 -14 -3
-33 -7 -42 -10 -21 -6 -53 -12 -103 -19 -22 -4 -51 -8 -65 -10 -139 -22 -514
-22 -588 -1 -9 3 -37 7 -62 10 -109 14 -334 73 -435 115 -11 5 -31 13 -45 19
-42 17 -253 121 -285 139 -169 100 -332 228 -464 367 -31 32 -70 73 -86 90
-17 17 -51 58 -75 91 -25 33 -48 62 -52 63 -5 2 -8 10 -8 17 0 7 -4 15 -9 17
-14 5 -113 169 -168 279 -55 111 -107 240 -138 344 -23 73 -19 59 -33 125 -46
209 -55 292 -56 495 0 149 9 319 19 334 2 4 6 27 10 52 3 24 7 51 9 59 1 8 7
33 11 55 12 55 12 55 15 58 1 1 3 10 5 19 8 45 77 248 86 253 5 4 9 13 9 22 0
17 103 231 131 273 9 14 42 63 72 110 128 195 310 389 501 534 101 78 141 103
277 178 151 82 263 129 414 176 112 34 200 54 290 67 22 3 51 8 65 10 104 18
362 24 490 11 115 -11 343 -51 362 -62 4 -3 16 -7 26 -9 33 -6 147 -43 188
-60 21 -9 47 -18 57 -20 10 -2 78 -33 150 -69 160 -80 332 -191 437 -283 69
-61 91 -80 129 -116 44 -41 145 -155 209 -234 51 -64 114 -160 167 -253 27
-47 50 -87 51 -89 2 -2 131 61 288 139 157 77 288 141 292 140 4 -1 10 2 13 7
7 11 376 193 391 193 5 0 10 5 10 10 0 6 4 10 9 10 10 0 811 396 820 406 3 2
-2 17 -11 32 -8 15 -35 63 -58 107 -24 44 -58 104 -77 133 -18 29 -33 57 -33
62 0 6 -4 10 -10 10 -5 0 -10 4 -10 10 0 11 -82 133 -92 138 -5 2 -8 8 -8 13
0 9 -175 245 -196 264 -6 6 -33 37 -60 70 -93 114 -281 307 -389 400 -32 28
-73 64 -91 81 -18 17 -45 39 -60 50 -14 10 -32 24 -39 31 -38 36 -338 253
-350 253 -2 0 -34 20 -72 45 -37 25 -74 45 -80 45 -7 0 -13 4 -13 9 0 5 -8 11
-17 14 -10 4 -38 18 -63 33 -73 43 -288 149 -390 191 -97 41 -131 55 -140 58
-3 1 -18 7 -33 13 -15 7 -40 15 -55 18 -15 4 -31 10 -37 14 -5 5 -30 14 -55
21 -56 16 -52 14 -70 22 -14 6 -229 66 -253 71 -7 2 -31 8 -54 15 -23 6 -45
11 -50 10 -4 -1 -11 0 -15 1 -5 1 -11 3 -15 4 -5 1 -24 6 -43 11 -19 4 -48 9
-65 11 -16 1 -30 3 -30 4 0 3 -6 4 -73 14 -142 22 -169 26 -332 42 -54 6 -597
14 -602 9z"/>
<path d="M9569 4052 c-21 -23 -157 -145 -194 -174 -16 -12 -36 -30 -43 -40 -7
-10 -20 -18 -28 -18 -8 0 -14 -4 -14 -8 0 -4 -24 -26 -52 -47 -29 -22 -55 -42
-58 -45 -3 -3 -50 -38 -105 -78 -55 -39 -104 -75 -110 -79 -5 -5 -28 -20 -50
-33 -22 -13 -42 -27 -45 -30 -15 -17 -306 -184 -445 -255 -170 -86 -392 -188
-412 -188 -7 0 -13 -4 -13 -9 0 -4 -3 -7 -7 -6 -13 2 -67 -15 -88 -28 -12 -8
-30 -15 -40 -17 -11 -2 -27 -7 -35 -10 -39 -16 -259 -85 -325 -102 -16 -5 -34
-9 -40 -11 -42 -12 -134 -35 -164 -40 -14 -3 -28 -7 -32 -9 -4 -3 -24 -7 -45
-10 -22 -4 -47 -8 -56 -11 -10 -3 -28 -7 -40 -9 -13 -2 -36 -7 -53 -10 -34 -6
-85 -14 -130 -20 -16 -2 -30 -4 -30 -5 0 -3 -43 -10 -90 -14 -27 -2 -50 -5
-50 -6 0 -1 -22 -3 -50 -6 -27 -2 -68 -6 -90 -9 -219 -28 -724 -23 -990 9 -27
3 -75 8 -105 12 -30 3 -75 9 -100 14 -25 5 -63 11 -85 14 -40 5 -160 28 -210
40 -5 2 -28 6 -50 11 -22 4 -72 16 -112 27 -40 10 -81 21 -92 23 -11 2 -28 8
-39 14 -11 6 -22 8 -24 6 -3 -3 -25 2 -49 11 -24 8 -51 17 -59 19 -8 2 -49 15
-90 30 -41 14 -76 26 -77 26 -7 0 -40 12 -55 20 -10 5 -22 9 -27 9 -5 0 -26 8
-47 17 -22 9 -41 17 -44 18 -13 2 -121 46 -170 68 -30 13 -65 28 -77 32 -13 3
-23 11 -23 16 0 5 -11 9 -24 9 -13 0 -26 3 -28 8 -1 4 -61 36 -133 71 -71 36
-132 68 -135 71 -3 4 -21 15 -40 25 -54 27 -230 134 -281 172 -26 18 -51 33
-57 33 -6 0 -12 4 -14 8 -1 4 -39 33 -82 63 -44 29 -87 61 -96 69 -9 8 -28 23
-41 32 -34 24 -272 219 -289 238 -3 3 -25 23 -49 45 l-43 40 22 -40 c45 -79
68 -121 100 -175 17 -30 36 -67 43 -82 6 -16 15 -28 19 -28 4 0 8 -5 8 -10 0
-6 19 -43 41 -83 23 -40 53 -92 67 -117 13 -25 28 -49 32 -55 4 -5 19 -30 32
-55 14 -25 34 -61 45 -80 88 -152 109 -187 120 -198 7 -7 13 -20 13 -28 0 -8
9 -24 20 -36 11 -12 20 -28 20 -35 0 -7 5 -13 10 -13 6 0 10 -5 10 -10 0 -6
12 -29 27 -53 15 -23 28 -44 28 -47 0 -3 8 -16 17 -30 60 -95 88 -142 88 -150
0 -6 5 -10 10 -10 6 0 10 -4 10 -10 0 -8 30 -58 57 -96 5 -5 14 -20 21 -32 6
-12 18 -32 25 -44 6 -12 16 -27 20 -32 4 -6 48 -74 97 -151 99 -155 107 -167
133 -200 9 -13 17 -26 17 -29 0 -11 311 -461 358 -517 12 -15 22 -31 22 -37 0
-6 3 -12 8 -14 4 -1 25 -28 47 -58 21 -30 45 -62 52 -70 7 -8 27 -33 43 -55
71 -95 145 -189 200 -255 8 -10 31 -38 50 -61 160 -198 453 -505 589 -619 29
-25 59 -50 65 -55 26 -25 184 -143 214 -160 17 -11 32 -24 32 -29 0 -5 3 -7 6
-3 4 3 25 -6 48 -21 85 -57 266 -132 359 -149 47 -8 216 -9 262 -1 17 3 50 11
75 18 25 6 46 12 48 11 1 -1 16 6 32 14 17 9 30 13 30 11 0 -4 118 55 190 95
81 45 280 190 336 244 11 11 41 37 65 58 130 114 347 339 484 502 28 32 60 70
72 82 12 13 20 23 18 23 -2 0 10 15 27 34 96 109 398 512 565 756 51 74 96
140 100 145 5 6 26 37 48 70 21 33 43 65 47 70 5 6 38 57 75 115 37 58 70 107
73 110 3 3 10 14 16 25 20 35 285 459 304 485 9 14 20 35 24 48 4 12 12 22 17
22 5 0 9 4 9 9 0 12 62 114 75 123 5 4 6 8 2 8 -4 0 5 19 20 43 50 76 54 82
59 100 4 9 11 17 17 17 6 0 7 3 4 7 -4 3 0 15 10 25 9 10 12 18 7 18 -5 0 -4
4 2 8 9 7 74 108 74 116 0 3 19 37 43 78 46 77 80 138 130 228 17 30 42 73 55
95 14 22 25 46 25 52 0 7 3 13 6 13 4 0 18 21 31 48 14 26 27 49 30 52 11 11
42 72 38 75 -2 3 -11 -3 -19 -13z"/>
</g>
</svg>
