<svg width="40" height="40" viewBox="0 0 40 40" fill="none" xmlns="http://www.w3.org/2000/svg">
<circle cx="20" cy="20" r="20" fill="#1078E1"/>
<mask id="mask0" mask-type="alpha" maskUnits="userSpaceOnUse" x="0" y="0" width="40" height="40">
<circle cx="20" cy="20" r="20" fill="#1078E1"/>
</mask>
<g mask="url(#mask0)">
<path d="M35.9614 29.5083H7.9157C7.9157 30.1614 7.9157 30.2296 7.9157 30.3173V35.191C7.9157 35.4055 7.99608 35.6113 8.13917 35.763C8.28225 35.9148 8.47631 36 8.67866 36H13.1461C13.3485 36 13.5425 35.9148 13.6856 35.763C13.8287 35.6113 13.9091 35.4055 13.9091 35.191V32.5787H29.9588V35.191C29.9588 35.4055 30.0392 35.6113 30.1823 35.763C30.3254 35.9148 30.5194 36 30.7218 36H35.2352C35.4376 36 35.6316 35.9148 35.7747 35.763C35.9178 35.6113 35.9982 35.4055 35.9982 35.191V30.3173C36.0074 30.2296 35.9798 30.1614 35.9614 29.5083ZM15.9682 27.2469C15.8027 26.8376 16.1428 26.5062 16.7219 26.5062H26.8978C27.4769 26.5062 27.817 26.8376 27.6516 27.2469L27.0173 28.826H35.8327C35.8327 28.826 36.7519 22.9094 32.643 21.7885C34.2424 22.1589 34.7664 21.3303 34.7664 21.3303C34.867 21.2536 34.9489 21.1526 35.0055 21.0357C35.062 20.9187 35.0915 20.7892 35.0915 20.6578C35.0915 20.5264 35.062 20.3969 35.0055 20.2799C34.9489 20.163 34.867 20.062 34.7664 19.9852H33.0015C32.6523 19.9588 32.3031 20.0359 31.993 20.2081C31.6829 20.3802 31.4242 20.6406 31.2458 20.96C30.9056 19.6928 30.1703 17.5776 28.8282 16.8271C27.0908 16.3483 25.3091 16.0737 23.515 16.0083C20.5978 15.8058 17.6684 16.0554 14.8191 16.7491C13.477 17.4997 12.7417 19.6733 12.4015 20.9697C12.2224 20.6488 11.9622 20.3874 11.6503 20.2152C11.3384 20.0429 10.9873 19.9666 10.6366 19.995H8.86251C8.76191 20.0717 8.67997 20.1727 8.62345 20.2897C8.56693 20.4066 8.53746 20.5361 8.53746 20.6675C8.53746 20.7989 8.56693 20.9285 8.62345 21.0454C8.67997 21.1623 8.76191 21.2634 8.86251 21.3401C8.86251 21.3401 9.38647 22.1784 10.9859 21.7982C6.8402 22.9192 7.7962 28.8358 7.7962 28.8358H16.6116L15.9682 27.2469ZM34.5642 24.8784C34.5642 24.8784 35.2168 25.2683 34.509 27.052C34.509 27.052 34.4263 27.4419 33.8196 27.5686L28.2031 27.9877C28.2031 27.9877 29.6003 26.0383 29.8026 25.8726C30.0048 25.7069 34.5642 24.8784 34.5642 24.8784ZM15.5361 17.5874C15.5361 17.5874 19.259 17.0415 21.7869 16.9928C24.3148 16.9441 28.0376 17.5874 28.0376 17.5874C29.6371 18.3282 30.2714 20.687 30.4093 21.2621C28.0744 21.0477 24.9858 20.8137 22.2373 20.7748H21.3181C18.5604 20.7748 15.481 21.0477 13.1461 21.2621C13.3208 20.6773 13.9642 18.3282 15.5361 17.5874ZM9.80012 27.5686C9.20262 27.4516 9.1107 27.052 9.1107 27.052C8.40289 25.2683 9.10151 24.8784 9.10151 24.8784C9.10151 24.8784 13.6977 25.6679 13.8631 25.8531C14.0286 26.0383 15.4626 27.9682 15.4626 27.9682L9.80012 27.5686Z" fill="white"/>
<path d="M24.3799 6.30017L23.5893 6.19295L23.2952 6.01749L23.1389 5.71533L23.0378 4.87706L22.9275 5.71533L22.7712 6.01749L22.477 6.19295L21.6865 6.30017L22.477 6.40739V6.39764L22.7712 6.57309L22.9367 6.885H22.9275L23.0378 7.72327L23.1389 6.885H23.1297L23.2952 6.57309L23.5801 6.39764V6.40739L24.3799 6.30017Z" fill="white"/>
<path d="M29.2516 13.6494L28.4886 13.5421L28.2036 13.3764L28.0566 13.084L27.9555 12.275L27.8543 13.084L27.6981 13.3764L27.4131 13.5421L26.6593 13.6494L27.4223 13.7566V13.7468L27.6981 13.9125L27.8543 14.2147L27.9555 15.0237L28.0566 14.2147H28.0474L28.2036 13.9125L28.4886 13.7468V13.7566L29.2516 13.6494Z" fill="white"/>
<path d="M9.31315 12.1877C9.17919 12.9248 9.26367 13.6878 9.55499 14.3719C9.84631 15.056 10.3302 15.6278 10.9402 16.0086C11.0072 15.6372 10.9914 15.2542 10.894 14.8904C10.7966 14.5265 10.6204 14.1918 10.3795 13.913C10.8495 14.2056 11.2024 14.6704 11.3717 15.2198C11.541 15.7691 11.515 16.3652 11.2987 16.8956C12.8522 18.5429 20.9782 16.1354 19.8659 16.496C20.0631 16.5992 20.2535 16.7165 20.4358 16.8469C21.3091 17.5195 23.3038 18.5527 24.6827 16.9249C26.6406 14.5758 23.8462 14.1469 24.5264 11.4469C23.6235 10.4945 22.5803 9.70438 21.4378 9.10757C22.7707 8.79566 23.1292 9.50721 23.791 9.72165C22.1088 6.79747 18.4503 6.79747 18.4503 6.79747L15.3801 7.07039L14.6171 7.2361H17.7701C18.1673 7.27697 18.5589 7.36525 18.9375 7.49927C19.3091 7.60221 19.6518 7.79858 19.9366 8.07175C20.2214 8.34492 20.44 8.68685 20.5737 9.06858H20.6289L20.7392 9.16606C20.8536 9.28989 20.9581 9.42356 21.0517 9.5657C21.2636 9.86863 21.3853 10.2318 21.401 10.6087C21.4108 10.7026 21.4108 10.7974 21.401 10.8913L21.5941 10.9985L21.6768 11.096C22.1075 11.5631 22.3653 12.179 22.403 12.831C22.403 13.0476 22.3656 13.2623 22.2927 13.4646C22.4092 13.6817 22.4724 13.9264 22.4765 14.1762C22.4704 14.4124 22.4061 14.6429 22.29 14.8447C22.1739 15.0464 22.01 15.2125 21.8147 15.3263L21.7136 15.3946H21.5941C21.4534 15.407 21.3119 15.407 21.1712 15.3946C20.6078 15.4373 20.0443 15.3124 19.5442 15.0339L17.1266 14.0592L16.6762 13.874C16.428 13.7765 16.0971 13.6498 15.757 13.5231L15.9408 13.7473C16.2147 14.1146 16.3695 14.5658 16.382 15.0339C16.3814 15.2304 16.3437 15.4248 16.271 15.6056C16.1984 15.7864 16.0924 15.95 15.9592 16.0866C15.7238 16.3139 15.4131 16.433 15.0951 16.418C14.6042 16.409 14.1235 16.2681 13.6979 16.0086C13.5739 15.9424 13.4541 15.8675 13.3394 15.7845L12.5488 15.1996C12.311 15.0346 12.0621 14.888 11.8043 14.761H11.694C10.8742 14.1459 10.1619 13.3839 9.58892 12.5094L9.51538 12.4411L9.31315 12.1877ZM4 8.2888L8.1825 10.7549C8.86817 11.0172 9.49442 11.429 10.021 11.9635C10.5615 12.7804 11.2336 13.4898 12.0065 14.0592C12.5397 14.333 13.0476 14.6594 13.5232 15.0339C15.0032 16.1549 15.4996 15.609 15.4996 15.609C16.2258 14.839 15.0308 13.7668 15.0308 13.7668L14.2218 13.0845L13.6979 12.2754C14.4082 12.3694 15.1037 12.5627 15.7661 12.8505C16.6854 13.1527 17.384 13.4646 17.384 13.4646L19.8567 14.4393C20.3461 14.7671 20.9286 14.9016 21.5021 14.8195C21.5948 14.7701 21.6751 14.6981 21.7363 14.6093C21.7974 14.5205 21.8378 14.4176 21.854 14.3089C21.8701 14.2003 21.8617 14.0892 21.8293 13.9847C21.7968 13.8803 21.7414 13.7855 21.6676 13.7083L19.2684 12.1097L17.4851 11.3982L19.2133 11.7393L21.686 13.3184C21.7628 13.0127 21.7579 12.6903 21.6719 12.3874C21.5859 12.0844 21.4221 11.8128 21.1988 11.6029L19.1213 10.5112L17.3748 10.248H19.057L20.6748 11.0668C21.0977 10.5307 20.3255 9.7314 20.3255 9.7314L19.4063 9.35125L18.055 9.18555L19.4706 9.12707L19.9486 9.33176C19.6453 8.11335 17.7057 7.96714 17.7057 7.96714L12.2731 7.89891C12.2731 7.89891 9.51538 5.20866 7.98946 4C6.32703 5.04975 4.95186 6.54154 4 8.32779V8.2888Z" fill="white"/>
<path d="M9.368 16.6717L9.57943 17.0713L9.94712 17.2857L9.57943 17.5099L9.368 17.8998L9.16577 17.5099L8.78889 17.2857L9.16577 17.0713L9.368 16.6717Z" fill="white"/>
<path d="M26.1902 6.44616L26.3924 6.83605L26.7693 7.05049L26.3924 7.27468L26.1902 7.66457L25.9788 7.27468L25.6111 7.05049L25.9788 6.83605L26.1902 6.44616Z" fill="white"/>
<path d="M16.1986 4.34134L16.5112 4.95542L17.0903 5.28683L16.5112 5.62798L16.1986 6.23231L15.8769 5.62798L15.307 5.28683L15.8769 4.95542L16.1986 4.34134Z" fill="white"/>
<path d="M33.3239 14.4974L32.5334 14.3804L32.2392 14.2147L32.0829 13.9126L31.9818 13.0645L31.8715 13.9126L31.7152 14.2147L31.4211 14.3804L30.6306 14.4974L31.4211 14.6046V14.5949L31.7152 14.7703L31.8807 15.0822H31.8715L31.9818 15.9205L32.0829 15.0822H32.0737L32.2392 14.7703L32.5334 14.5949V14.6046L33.3239 14.4974Z" fill="white"/>
<path d="M27.8546 10.1798L27.4225 10.1213L27.2571 10.0238L27.1743 9.8581L27.11 9.39998L27.0548 9.8581L26.9721 10.0238L26.8066 10.1213L26.3746 10.1798L26.8066 10.2382L26.9721 10.3357L27.0548 10.5014L27.11 10.9693L27.1743 10.5014H27.1651L27.2571 10.3357L27.4133 10.2382L27.8546 10.1798Z" fill="white"/>
<circle cx="20" cy="20" r="20" fill="url(#paint0_linear)"/>
</g>
<defs>
<linearGradient id="paint0_linear" x1="40" y1="0" x2="0" y2="40" gradientUnits="userSpaceOnUse">
<stop stop-color="white" stop-opacity="0.56"/>
<stop offset="0.80625" stop-color="white" stop-opacity="0"/>
</linearGradient>
</defs>
</svg>
