<svg width="72" height="112" viewBox="0 0 72 112" fill="none" xmlns="http://www.w3.org/2000/svg">
<path d="M4.05779 110.684C4.05779 110.873 4.0156 111.047 3.93121 111.204C3.8518 111.361 3.74011 111.494 3.59617 111.605C3.45718 111.716 3.29338 111.801 3.10477 111.861C2.92111 111.922 2.72256 111.952 2.50913 111.952H0V107.035H2.62825C2.81191 107.035 2.97819 107.072 3.1271 107.145C3.27601 107.219 3.40258 107.316 3.50682 107.436C3.61106 107.552 3.69048 107.686 3.74508 107.838C3.80464 107.986 3.83442 108.136 3.83442 108.288C3.83442 108.533 3.76741 108.759 3.63339 108.967C3.50434 109.175 3.3182 109.329 3.07498 109.431C3.37777 109.514 3.61602 109.669 3.78975 109.895C3.96844 110.116 4.05779 110.38 4.05779 110.684ZM3.38025 110.573C3.38025 110.463 3.35791 110.356 3.31324 110.255C3.27353 110.149 3.21645 110.056 3.14199 109.978C3.0725 109.899 2.98812 109.837 2.88885 109.791C2.78957 109.745 2.68037 109.722 2.56125 109.722H0.670093V111.411H2.50913C2.63322 111.411 2.74738 111.388 2.85162 111.342C2.95586 111.296 3.04768 111.236 3.1271 111.162C3.20652 111.084 3.26857 110.994 3.31324 110.892C3.35791 110.79 3.38025 110.684 3.38025 110.573ZM0.670093 107.575V109.216H2.35277C2.4719 109.216 2.5811 109.195 2.68037 109.154C2.77965 109.108 2.86403 109.048 2.93352 108.974C3.00797 108.9 3.06506 108.814 3.10477 108.717C3.14944 108.616 3.17177 108.51 3.17177 108.399C3.17177 108.283 3.15192 108.175 3.11221 108.073C3.0725 107.972 3.0179 107.884 2.94841 107.81C2.88388 107.736 2.80198 107.679 2.70271 107.637C2.6084 107.596 2.50665 107.575 2.39744 107.575H0.670093Z" fill="white"/>
<path d="M12.3811 111.425C12.6888 111.425 12.9445 111.37 13.148 111.259C13.3515 111.148 13.5128 111.005 13.6319 110.83C13.756 110.65 13.8429 110.446 13.8925 110.22C13.9421 109.989 13.967 109.756 13.967 109.521V107.035H14.6371V109.521C14.6371 109.853 14.5949 110.169 14.5105 110.47C14.4311 110.765 14.302 111.026 14.1233 111.252C13.9446 111.478 13.7113 111.658 13.4234 111.792C13.1405 111.922 12.7955 111.986 12.3885 111.986C11.9666 111.986 11.6117 111.917 11.3238 111.778C11.0359 111.64 10.8026 111.458 10.6239 111.231C10.4502 111 10.3236 110.737 10.2442 110.442C10.1698 110.142 10.1325 109.835 10.1325 109.521V107.035H10.8026V109.521C10.8026 109.765 10.8275 110.003 10.8771 110.234C10.9317 110.46 11.0186 110.661 11.1377 110.837C11.2618 111.012 11.4231 111.155 11.6216 111.266C11.8251 111.372 12.0783 111.425 12.3811 111.425Z" fill="white"/>
<path d="M24.1441 108.066C24.0845 108.002 24.0051 107.94 23.9058 107.88C23.8065 107.819 23.6949 107.766 23.5708 107.72C23.4467 107.669 23.3102 107.63 23.1613 107.602C23.0173 107.57 22.8659 107.554 22.7071 107.554C22.2951 107.554 21.9923 107.626 21.7987 107.769C21.6101 107.912 21.5158 108.108 21.5158 108.357C21.5158 108.491 21.5431 108.602 21.5977 108.69C21.6523 108.777 21.7367 108.854 21.8509 108.918C21.97 108.978 22.1164 109.031 22.2901 109.078C22.4639 109.124 22.6699 109.172 22.9081 109.223C23.1811 109.278 23.4268 109.343 23.6452 109.417C23.8686 109.486 24.0572 109.574 24.2111 109.68C24.3699 109.786 24.489 109.916 24.5685 110.068C24.6528 110.22 24.695 110.407 24.695 110.629C24.695 110.864 24.6454 111.07 24.5461 111.245C24.4468 111.416 24.3103 111.559 24.1366 111.675C23.9679 111.785 23.7668 111.868 23.5335 111.924C23.3002 111.975 23.0471 112 22.7741 112C22.3671 112 21.9799 111.942 21.6126 111.827C21.2503 111.707 20.9202 111.534 20.6224 111.307L20.9425 110.781C21.0219 110.86 21.1237 110.938 21.2478 111.017C21.3768 111.095 21.5208 111.167 21.6796 111.231C21.8434 111.291 22.0171 111.342 22.2008 111.384C22.3894 111.421 22.5855 111.439 22.789 111.439C23.1662 111.439 23.4591 111.377 23.6676 111.252C23.876 111.127 23.9803 110.94 23.9803 110.691C23.9803 110.553 23.9455 110.437 23.876 110.345C23.8115 110.248 23.7147 110.165 23.5857 110.096C23.4566 110.026 23.2953 109.966 23.1017 109.916C22.9131 109.86 22.6972 109.805 22.4539 109.749C22.1859 109.689 21.9501 109.625 21.7466 109.555C21.5431 109.486 21.3719 109.403 21.2329 109.306C21.0989 109.209 20.9971 109.091 20.9276 108.953C20.8581 108.814 20.8234 108.648 20.8234 108.454C20.8234 108.219 20.8705 108.011 20.9648 107.831C21.0592 107.651 21.1907 107.499 21.3595 107.374C21.5282 107.249 21.7292 107.157 21.9625 107.097C22.1958 107.032 22.449 107 22.722 107C23.0794 107 23.402 107.051 23.6899 107.152C23.9778 107.254 24.2334 107.39 24.4568 107.561L24.1441 108.066Z" fill="white"/>
<path d="M30.7882 111.952V107.035H31.4583V111.952H30.7882Z" fill="white"/>
<path d="M38.6042 108.198V111.952H37.9341V107.035H38.4553L41.7313 110.864V107.042H42.4014V111.952H41.8356L38.6042 108.198Z" fill="white"/>
<path d="M52.4642 111.398V111.952H48.8755V107.035H52.3972V107.589H49.5456V109.181H52.0249V109.701H49.5456V111.398H52.4642Z" fill="white"/>
<path d="M61.7001 108.066C61.6406 108.002 61.5611 107.94 61.4619 107.88C61.3626 107.819 61.2509 107.766 61.1268 107.72C61.0027 107.669 60.8662 107.63 60.7173 107.602C60.5734 107.57 60.422 107.554 60.2631 107.554C59.8512 107.554 59.5484 107.626 59.3548 107.769C59.1662 107.912 59.0719 108.108 59.0719 108.357C59.0719 108.491 59.0992 108.602 59.1538 108.69C59.2084 108.777 59.2927 108.854 59.4069 108.918C59.526 108.978 59.6725 109.031 59.8462 109.078C60.0199 109.124 60.2259 109.172 60.4642 109.223C60.7372 109.278 60.9829 109.343 61.2013 109.417C61.4246 109.486 61.6133 109.574 61.7671 109.68C61.926 109.786 62.0451 109.916 62.1245 110.068C62.2089 110.22 62.2511 110.407 62.2511 110.629C62.2511 110.864 62.2014 111.07 62.1022 111.245C62.0029 111.416 61.8664 111.559 61.6927 111.675C61.5239 111.785 61.3229 111.868 61.0896 111.924C60.8563 111.975 60.6031 112 60.3301 112C59.9231 112 59.536 111.942 59.1686 111.827C58.8063 111.707 58.4762 111.534 58.1784 111.307L58.4986 110.781C58.578 110.86 58.6797 110.938 58.8038 111.017C58.9329 111.095 59.0768 111.167 59.2357 111.231C59.3995 111.291 59.5732 111.342 59.7568 111.384C59.9455 111.421 60.1415 111.439 60.345 111.439C60.7223 111.439 61.0151 111.377 61.2236 111.252C61.4321 111.127 61.5363 110.94 61.5363 110.691C61.5363 110.553 61.5016 110.437 61.4321 110.345C61.3675 110.248 61.2708 110.165 61.1417 110.096C61.0126 110.026 60.8513 109.966 60.6577 109.916C60.4691 109.86 60.2532 109.805 60.01 109.749C59.742 109.689 59.5062 109.625 59.3027 109.555C59.0992 109.486 58.9279 109.403 58.7889 109.306C58.6549 109.209 58.5532 109.091 58.4837 108.953C58.4142 108.814 58.3794 108.648 58.3794 108.454C58.3794 108.219 58.4266 108.011 58.5209 107.831C58.6152 107.651 58.7467 107.499 58.9155 107.374C59.0843 107.249 59.2853 107.157 59.5186 107.097C59.7519 107.032 60.005 107 60.278 107C60.6354 107 60.958 107.051 61.2459 107.152C61.5338 107.254 61.7895 107.39 62.0128 107.561L61.7001 108.066Z" fill="white"/>
<path d="M71.449 108.066C71.3895 108.002 71.3101 107.94 71.2108 107.88C71.1115 107.819 70.9998 107.766 70.8757 107.72C70.7516 107.669 70.6151 107.63 70.4662 107.602C70.3223 107.57 70.1709 107.554 70.0121 107.554C69.6001 107.554 69.2973 107.626 69.1037 107.769C68.9151 107.912 68.8208 108.108 68.8208 108.357C68.8208 108.491 68.8481 108.602 68.9027 108.69C68.9573 108.777 69.0417 108.854 69.1558 108.918C69.275 108.978 69.4214 109.031 69.5951 109.078C69.7688 109.124 69.9748 109.172 70.2131 109.223C70.4861 109.278 70.7318 109.343 70.9502 109.417C71.1736 109.486 71.3622 109.574 71.516 109.68C71.6749 109.786 71.794 109.916 71.8734 110.068C71.9578 110.22 72 110.407 72 110.629C72 110.864 71.9504 111.07 71.8511 111.245C71.7518 111.416 71.6153 111.559 71.4416 111.675C71.2728 111.785 71.0718 111.868 70.8385 111.924C70.6052 111.975 70.3521 112 70.0791 112C69.672 112 69.2849 111.942 68.9176 111.827C68.5552 111.707 68.2251 111.534 67.9273 111.307L68.2475 110.781C68.3269 110.86 68.4286 110.938 68.5527 111.017C68.6818 111.095 68.8257 111.167 68.9846 111.231C69.1484 111.291 69.3221 111.342 69.5058 111.384C69.6944 111.421 69.8904 111.439 70.094 111.439C70.4712 111.439 70.7641 111.377 70.9725 111.252C71.181 111.127 71.2852 110.94 71.2852 110.691C71.2852 110.553 71.2505 110.437 71.181 110.345C71.1165 110.248 71.0197 110.165 70.8906 110.096C70.7616 110.026 70.6003 109.966 70.4067 109.916C70.218 109.86 70.0021 109.805 69.7589 109.749C69.4909 109.689 69.2551 109.625 69.0516 109.555C68.8481 109.486 68.6768 109.403 68.5379 109.306C68.4038 109.209 68.3021 109.091 68.2326 108.953C68.1631 108.814 68.1283 108.648 68.1283 108.454C68.1283 108.219 68.1755 108.011 68.2698 107.831C68.3641 107.651 68.4957 107.499 68.6644 107.374C68.8332 107.249 69.0342 107.157 69.2675 107.097C69.5008 107.032 69.7539 107 70.0269 107C70.3843 107 70.707 107.051 70.9949 107.152C71.2828 107.254 71.5384 107.39 71.7617 107.561L71.449 108.066Z" fill="white"/>
<path d="M0 92.9237C0 92.3319 0.0975451 91.7448 0.292635 91.1623C0.496593 90.5705 0.789228 90.0435 1.17054 89.5811C1.55185 89.1188 2.02184 88.7443 2.58051 88.4577C3.13918 88.1618 3.77322 88.0139 4.48264 88.0139C5.32508 88.0139 6.04336 88.2127 6.6375 88.6103C7.24051 89.0079 7.68389 89.5257 7.96766 90.1637L7.23607 90.6352C7.08532 90.3116 6.8991 90.0388 6.6774 89.8169C6.46458 89.595 6.23402 89.4147 5.98572 89.276C5.73742 89.1373 5.48026 89.0402 5.21423 88.9847C4.9482 88.92 4.6866 88.8877 4.42943 88.8877C3.8619 88.8877 3.36087 89.0079 2.92635 89.2483C2.49183 89.4887 2.12382 89.803 1.82232 90.1914C1.52968 90.5798 1.30799 91.019 1.15724 91.509C1.00649 91.9898 0.931112 92.4799 0.931112 92.9792C0.931112 93.5247 1.01979 94.0472 1.19714 94.5465C1.38337 95.0458 1.63166 95.4896 1.94203 95.8779C2.26127 96.257 2.63372 96.5622 3.05937 96.7933C3.49389 97.0153 3.96388 97.1262 4.46934 97.1262C4.73537 97.1262 5.00584 97.0939 5.28074 97.0291C5.5645 96.9552 5.83497 96.8442 6.09213 96.6963C6.35817 96.5391 6.60203 96.3495 6.82372 96.1276C7.04542 95.8964 7.23164 95.619 7.38239 95.2954L8.15388 95.7115C8.00313 96.0814 7.79031 96.4096 7.51541 96.6963C7.24051 96.9736 6.93457 97.2094 6.5976 97.4036C6.26062 97.5978 5.90148 97.7457 5.52016 97.8474C5.14772 97.9491 4.77971 98 4.41613 98C3.76879 98 3.17465 97.8521 2.63372 97.5562C2.09279 97.2603 1.62723 96.8766 1.23705 96.405C0.846869 95.9242 0.540932 95.3833 0.319238 94.7822C0.106413 94.172 0 93.5525 0 92.9237Z" fill="white"/>
<path d="M15.7215 97.9861C15.0653 97.9861 14.4623 97.8474 13.9125 97.57C13.3716 97.2834 12.906 96.9089 12.5158 96.4466C12.1256 95.975 11.8241 95.4387 11.6113 94.8377C11.3985 94.2367 11.2921 93.6218 11.2921 92.9931C11.2921 92.3366 11.4029 91.7078 11.6246 91.1068C11.8552 90.5058 12.17 89.9741 12.569 89.5118C12.9681 89.0495 13.4381 88.6842 13.979 88.4161C14.5199 88.1387 15.1052 88 15.7348 88C16.391 88 16.9896 88.1479 17.5305 88.4438C18.0803 88.7305 18.5459 89.1096 18.9272 89.5811C19.3174 90.0527 19.6189 90.589 19.8317 91.19C20.0445 91.7818 20.1509 92.3874 20.1509 93.0069C20.1509 93.6634 20.0357 94.2922 19.8051 94.8932C19.5834 95.4942 19.273 96.0259 18.874 96.4882C18.4838 96.9413 18.0182 97.3065 17.4773 97.5839C16.9364 97.8521 16.3511 97.9861 15.7215 97.9861ZM12.2232 92.9931C12.2232 93.5294 12.3074 94.0472 12.4759 94.5465C12.6444 95.0365 12.8838 95.4757 13.1942 95.8641C13.5046 96.2432 13.8726 96.5483 14.2982 96.7795C14.7239 97.0014 15.1983 97.1123 15.7215 97.1123C16.2536 97.1123 16.7369 96.9921 17.1714 96.7517C17.6059 96.5113 17.9739 96.197 18.2754 95.8086C18.5769 95.4202 18.8075 94.981 18.9671 94.491C19.1356 94.0009 19.2198 93.5016 19.2198 92.9931C19.2198 92.4568 19.1311 91.9436 18.9538 91.4535C18.7853 90.9542 18.5459 90.515 18.2355 90.1359C17.9251 89.7568 17.5571 89.4563 17.1315 89.2344C16.7058 89.0032 16.2358 88.8877 15.7215 88.8877C15.1894 88.8877 14.7061 89.0079 14.2716 89.2483C13.8371 89.4794 13.4691 89.7892 13.1676 90.1775C12.8661 90.5659 12.6311 91.0051 12.4626 91.4951C12.303 91.9852 12.2232 92.4845 12.2232 92.9931Z" fill="white"/>
<path d="M28.0014 97.1123C28.5956 97.1123 29.0877 96.9968 29.4779 96.7656C29.877 96.5252 30.1918 96.2154 30.4223 95.8363C30.6617 95.448 30.8258 95.0088 30.9145 94.5187C31.012 94.0287 31.0608 93.534 31.0608 93.0347V88.0694H31.9919V93.0347C31.9919 93.7004 31.921 94.3338 31.7791 94.9348C31.6372 95.5266 31.4066 96.049 31.0874 96.5021C30.777 96.9552 30.3691 97.3158 29.8637 97.5839C29.3582 97.8521 28.7419 97.9861 28.0147 97.9861C27.2698 97.9861 26.6402 97.8474 26.1259 97.57C25.6204 97.2834 25.2125 96.9089 24.9022 96.4466C24.5918 95.9843 24.3701 95.4572 24.2371 94.8655C24.1041 94.2737 24.0376 93.6634 24.0376 93.0347V88.0694H24.9554V93.0347C24.9554 93.5525 25.0041 94.0564 25.1017 94.5465C25.1992 95.0365 25.3633 95.4711 25.5938 95.8502C25.8333 96.2293 26.1481 96.5344 26.5383 96.7656C26.9284 96.9968 27.4162 97.1123 28.0014 97.1123Z" fill="white"/>
<path d="M35.8758 97.9168V88.0694H39.7865C40.1944 88.0694 40.5669 88.1618 40.9039 88.3467C41.2497 88.5224 41.5468 88.7582 41.7951 89.0541C42.0434 89.3407 42.2384 89.669 42.3803 90.0388C42.5222 90.4087 42.5932 90.7832 42.5932 91.1623C42.5932 91.5691 42.5266 91.9621 42.3936 92.3412C42.2606 92.7111 42.0744 93.0393 41.835 93.3259C41.5955 93.6126 41.3073 93.8437 40.9704 94.0194C40.6423 94.1951 40.2742 94.2829 39.8663 94.2829H36.807V97.9168H35.8758ZM36.807 93.423H39.8264C40.1013 93.423 40.3496 93.3629 40.5713 93.2427C40.8019 93.1133 40.997 92.9468 41.1566 92.7434C41.3162 92.5307 41.4403 92.2903 41.529 92.0222C41.6177 91.7448 41.662 91.4582 41.662 91.1623C41.662 90.8571 41.6088 90.5705 41.5024 90.3024C41.4049 90.025 41.2674 89.7846 41.0901 89.5811C40.9216 89.3777 40.7176 89.2205 40.4782 89.1096C40.2476 88.9894 40.0038 88.9293 39.7466 88.9293H36.807V93.423Z" fill="white"/>
<path d="M45.8145 97.9168V88.0694H46.7456V97.0569H52.1993V97.9168H45.8145Z" fill="white"/>
<path d="M61.5784 97.0569V97.9168H55.2336V88.0694H61.4587V88.9293H56.1647V92.4799H60.7803V93.2982H56.1647V97.0569H61.5784Z" fill="white"/>
<path d="M65.0034 97.9168V88.0694H68.9938C69.4017 88.0694 69.7742 88.1618 70.1112 88.3467C70.457 88.5224 70.7541 88.7582 71.0024 89.0541C71.2507 89.3407 71.4413 89.669 71.5743 90.0388C71.7162 90.4087 71.7872 90.7832 71.7872 91.1623C71.7872 91.5229 71.734 91.8696 71.6276 92.2025C71.53 92.5261 71.3881 92.822 71.2019 93.0901C71.0246 93.349 70.8073 93.571 70.5501 93.7559C70.293 93.9316 70.0048 94.0518 69.6855 94.1165L72 97.9168H70.9492L68.7278 94.2829H65.9345V97.9168H65.0034ZM65.9345 93.423H69.0204C69.2953 93.423 69.5436 93.3629 69.7653 93.2427C69.9959 93.1133 70.191 92.9422 70.3506 92.7295C70.5102 92.5169 70.6344 92.2765 70.723 92.0083C70.8117 91.7402 70.8561 91.4582 70.8561 91.1623C70.8561 90.8664 70.8029 90.5844 70.6964 90.3162C70.5989 90.0388 70.4614 89.7984 70.2841 89.595C70.1156 89.3916 69.9116 89.2298 69.6722 89.1096C69.4417 88.9894 69.1978 88.9293 68.9406 88.9293H65.9345V93.423Z" fill="white"/>
<path fill-rule="evenodd" clip-rule="evenodd" d="M36 0C55.8822 0 72 16.1177 72 36C72 55.8822 55.8822 72 36 72C16.1177 72 0 55.8822 0 36C0 16.1177 16.1177 0 36 0ZM36 11.25C26.0589 11.25 18 19.1649 18 28.9285C18 38.6921 26.0589 46.6072 36 46.6072C39.869 46.6072 43.453 45.4082 46.3877 43.368C48.8517 41.6551 50.8582 39.3488 52.1913 36.6614L44.6925 32.9856L44.4622 32.8621C43.9798 33.8615 43.3191 34.7619 42.5206 35.5237C40.8351 37.1315 38.5353 38.1215 36 38.1215C30.8306 38.1215 26.64 34.0057 26.64 28.9285C26.64 23.8515 30.8306 19.7357 36 19.7357C39.1134 19.7357 41.8719 21.2287 43.5735 23.5256C43.8652 23.9193 44.1259 24.3366 44.3519 24.774L44.6925 24.6064L52.084 20.9832C49.8541 16.6373 45.8518 13.3189 41.0096 11.9437C39.4193 11.492 37.7384 11.25 36 11.25ZM36 60.75C31.3726 60.75 24.572 49.0641 21.6588 43.8334C25.3993 47.3063 30.4464 49.4357 36 49.4357C41.6351 49.4357 46.7488 47.2433 50.505 43.6797C47.6172 48.8399 40.6734 60.75 36 60.75Z" fill="white"/>
</svg>
