<svg width="86" height="24" viewBox="0 0 86 24" fill="none" xmlns="http://www.w3.org/2000/svg">
<path d="M4.8468 22.4211C4.8468 22.6482 4.79641 22.856 4.69562 23.0443C4.60076 23.2327 4.46736 23.3934 4.29542 23.5263C4.12942 23.6593 3.93376 23.7618 3.70847 23.8338C3.4891 23.9058 3.25195 23.9418 2.99701 23.9418H0V18.0415H3.1393C3.35867 18.0415 3.55729 18.0859 3.73515 18.1745C3.91301 18.2632 4.0642 18.3795 4.1887 18.5235C4.31321 18.662 4.40807 18.8227 4.47329 19.0055C4.54443 19.1828 4.58 19.3629 4.58 19.5457C4.58 19.8393 4.49997 20.1108 4.33989 20.3601C4.18574 20.6094 3.96341 20.795 3.6729 20.9169C4.03455 21.0166 4.31914 21.2022 4.52665 21.4737C4.74008 21.7396 4.8468 22.0554 4.8468 22.4211ZM4.03752 22.2881C4.03752 22.1551 4.01084 22.0277 3.95748 21.9058C3.91005 21.7784 3.84187 21.6676 3.75294 21.5734C3.66993 21.4792 3.56914 21.4044 3.45057 21.349C3.33199 21.2936 3.20156 21.2659 3.05927 21.2659H0.800389V23.2936H2.99701C3.14523 23.2936 3.2816 23.2659 3.4061 23.2105C3.53061 23.1551 3.64029 23.0831 3.73515 22.9945C3.83001 22.9003 3.90412 22.7922 3.95748 22.6704C4.01084 22.5485 4.03752 22.4211 4.03752 22.2881ZM0.800389 18.6898V20.6593H2.81026C2.95255 20.6593 3.08298 20.6343 3.20156 20.5845C3.32013 20.5291 3.42092 20.4571 3.50393 20.3684C3.59286 20.2798 3.66104 20.1773 3.70847 20.0609C3.76183 19.9391 3.78851 19.8116 3.78851 19.6787C3.78851 19.5402 3.76479 19.41 3.71736 19.2881C3.66993 19.1662 3.60472 19.0609 3.52171 18.9723C3.44464 18.8837 3.34681 18.8144 3.22824 18.7645C3.11559 18.7147 2.99405 18.6898 2.86361 18.6898H0.800389Z" fill="white"/>
<path d="M14.7885 23.3103C15.1561 23.3103 15.4614 23.2438 15.7045 23.1108C15.9476 22.9778 16.1403 22.8061 16.2826 22.5956C16.4308 22.3795 16.5345 22.1357 16.5938 21.8643C16.6531 21.5873 16.6828 21.3075 16.6828 21.0249V18.0415H17.4832V21.0249C17.4832 21.4238 17.4328 21.8033 17.332 22.1634C17.2371 22.518 17.083 22.831 16.8695 23.1025C16.6561 23.374 16.3774 23.59 16.0336 23.7507C15.6956 23.9058 15.2836 23.9834 14.7974 23.9834C14.2935 23.9834 13.8695 23.9003 13.5257 23.7341C13.1818 23.5679 12.9031 23.349 12.6897 23.0776C12.4822 22.8006 12.331 22.4848 12.2362 22.1302C12.1472 21.7701 12.1028 21.4017 12.1028 21.0249V18.0415H12.9031V21.0249C12.9031 21.3186 12.9328 21.6039 12.9921 21.8809C13.0573 22.1524 13.1611 22.3934 13.3033 22.6039C13.4516 22.8144 13.6442 22.9862 13.8814 23.1191C14.1245 23.2465 14.4269 23.3103 14.7885 23.3103Z" fill="white"/>
<path d="M28.8387 19.2798C28.7676 19.2022 28.6727 19.1274 28.5542 19.0554C28.4356 18.9834 28.3022 18.9197 28.154 18.8643C28.0057 18.8033 27.8427 18.7562 27.6648 18.723C27.4929 18.6842 27.3121 18.6648 27.1224 18.6648C26.6303 18.6648 26.2686 18.7507 26.0374 18.9224C25.8121 19.0942 25.6994 19.3296 25.6994 19.6288C25.6994 19.7895 25.732 19.9224 25.7973 20.0277C25.8625 20.133 25.9633 20.2244 26.0996 20.3019C26.2419 20.374 26.4168 20.4377 26.6243 20.4931C26.8318 20.5485 27.0779 20.6066 27.3625 20.6676C27.6886 20.7341 27.982 20.8116 28.2429 20.9003C28.5097 20.9834 28.735 21.0886 28.9188 21.2161C29.1085 21.3435 29.2508 21.4986 29.3457 21.6814C29.4464 21.8643 29.4968 22.0886 29.4968 22.3546C29.4968 22.6371 29.4376 22.8837 29.319 23.0942C29.2004 23.2992 29.0374 23.4709 28.8298 23.6094C28.6283 23.7424 28.3882 23.8421 28.1095 23.9086C27.8308 23.9695 27.5285 24 27.2024 24C26.7162 24 26.2538 23.9308 25.8151 23.7922C25.3822 23.6482 24.988 23.4404 24.6323 23.169L25.0147 22.5374C25.1095 22.6316 25.2311 22.7258 25.3793 22.8199C25.5334 22.9141 25.7054 23 25.8951 23.0776C26.0907 23.1496 26.2982 23.2105 26.5176 23.2604C26.7429 23.3047 26.9771 23.3269 27.2202 23.3269C27.6708 23.3269 28.0206 23.2521 28.2696 23.1025C28.5186 22.9529 28.6431 22.7285 28.6431 22.4294C28.6431 22.2632 28.6016 22.1247 28.5186 22.0139C28.4415 21.8975 28.3259 21.7978 28.1717 21.7147C28.0176 21.6316 27.8249 21.5596 27.5937 21.4986C27.3684 21.4321 27.1105 21.3657 26.82 21.2992C26.4998 21.2271 26.2182 21.1496 25.9751 21.0665C25.732 20.9834 25.5275 20.8837 25.3615 20.7673C25.2014 20.651 25.0799 20.5097 24.9969 20.3435C24.9139 20.1773 24.8724 19.9778 24.8724 19.7452C24.8724 19.4626 24.9287 19.2133 25.0413 18.9972C25.154 18.7812 25.3111 18.5983 25.5127 18.4488C25.7143 18.2992 25.9544 18.1884 26.233 18.1163C26.5117 18.0388 26.8141 18 27.1401 18C27.567 18 27.9524 18.0609 28.2963 18.1828C28.6401 18.3047 28.9455 18.4681 29.2123 18.6731L28.8387 19.2798Z" fill="white"/>
<path d="M36.7748 23.9418V18.0415H37.5752V23.9418H36.7748Z" fill="white"/>
<path d="M46.1106 19.4377V23.9418H45.3102V18.0415H45.9327L49.8458 22.6371V18.0499H50.6461V23.9418H49.9703L46.1106 19.4377Z" fill="white"/>
<path d="M62.6656 23.277V23.9418H58.3791V18.0415H62.5856V18.7064H59.1795V20.6177H62.1409V21.241H59.1795V23.277H62.6656Z" fill="white"/>
<path d="M73.6974 19.2798C73.6262 19.2022 73.5313 19.1274 73.4128 19.0554C73.2942 18.9834 73.1608 18.9197 73.0126 18.8643C72.8644 18.8033 72.7013 18.7562 72.5235 18.723C72.3515 18.6842 72.1707 18.6648 71.981 18.6648C71.4889 18.6648 71.1272 18.7507 70.896 18.9224C70.6707 19.0942 70.5581 19.3296 70.5581 19.6288C70.5581 19.7895 70.5907 19.9224 70.6559 20.0277C70.7211 20.133 70.8219 20.2244 70.9582 20.3019C71.1005 20.374 71.2754 20.4377 71.4829 20.4931C71.6905 20.5485 71.9365 20.6066 72.2211 20.6676C72.5472 20.7341 72.8406 20.8116 73.1015 20.9003C73.3683 20.9834 73.5936 21.0886 73.7774 21.2161C73.9671 21.3435 74.1094 21.4986 74.2043 21.6814C74.3051 21.8643 74.3555 22.0886 74.3555 22.3546C74.3555 22.6371 74.2962 22.8837 74.1776 23.0942C74.059 23.2992 73.896 23.4709 73.6885 23.6094C73.4869 23.7424 73.2468 23.8421 72.9681 23.9086C72.6895 23.9695 72.3871 24 72.061 24C71.5748 24 71.1124 23.9308 70.6737 23.7922C70.2409 23.6482 69.8466 23.4404 69.4909 23.169L69.8733 22.5374C69.9681 22.6316 70.0897 22.7258 70.2379 22.8199C70.392 22.9141 70.564 23 70.7537 23.0776C70.9494 23.1496 71.1569 23.2105 71.3762 23.2604C71.6015 23.3047 71.8357 23.3269 72.0788 23.3269C72.5294 23.3269 72.8792 23.2521 73.1282 23.1025C73.3772 22.9529 73.5017 22.7285 73.5017 22.4294C73.5017 22.2632 73.4602 22.1247 73.3772 22.0139C73.3001 21.8975 73.1845 21.7978 73.0304 21.7147C72.8762 21.6316 72.6835 21.5596 72.4523 21.4986C72.227 21.4321 71.9691 21.3657 71.6786 21.2992C71.3584 21.2271 71.0768 21.1496 70.8337 21.0665C70.5907 20.9834 70.3861 20.8837 70.2201 20.7673C70.06 20.651 69.9385 20.5097 69.8555 20.3435C69.7725 20.1773 69.731 19.9778 69.731 19.7452C69.731 19.4626 69.7873 19.2133 69.9 18.9972C70.0126 18.7812 70.1697 18.5983 70.3713 18.4488C70.5729 18.2992 70.813 18.1884 71.0916 18.1163C71.3703 18.0388 71.6727 18 71.9987 18C72.4256 18 72.811 18.0609 73.1549 18.1828C73.4987 18.3047 73.8041 18.4681 74.0709 18.6731L73.6974 19.2798Z" fill="white"/>
<path d="M85.3419 19.2798C85.2708 19.2022 85.1759 19.1274 85.0573 19.0554C84.9387 18.9834 84.8053 18.9197 84.6571 18.8643C84.5089 18.8033 84.3459 18.7562 84.168 18.723C83.9961 18.6842 83.8152 18.6648 83.6255 18.6648C83.1334 18.6648 82.7718 18.7507 82.5405 18.9224C82.3152 19.0942 82.2026 19.3296 82.2026 19.6288C82.2026 19.7895 82.2352 19.9224 82.3004 20.0277C82.3656 20.133 82.4664 20.2244 82.6028 20.3019C82.7451 20.374 82.92 20.4377 83.1275 20.4931C83.335 20.5485 83.581 20.6066 83.8656 20.6676C84.1917 20.7341 84.4852 20.8116 84.7461 20.9003C85.0129 20.9834 85.2381 21.0886 85.4219 21.2161C85.6117 21.3435 85.754 21.4986 85.8488 21.6814C85.9496 21.8643 86 22.0886 86 22.3546C86 22.6371 85.9407 22.8837 85.8221 23.0942C85.7036 23.2992 85.5405 23.4709 85.333 23.6094C85.1314 23.7424 84.8913 23.8421 84.6127 23.9086C84.334 23.9695 84.0316 24 83.7055 24C83.2194 24 82.7569 23.9308 82.3182 23.7922C81.8854 23.6482 81.4911 23.4404 81.1354 23.169L81.5178 22.5374C81.6127 22.6316 81.7342 22.7258 81.8824 22.8199C82.0366 22.9141 82.2085 23 82.3982 23.0776C82.5939 23.1496 82.8014 23.2105 83.0208 23.2604C83.2461 23.3047 83.4803 23.3269 83.7233 23.3269C84.1739 23.3269 84.5237 23.2521 84.7727 23.1025C85.0218 22.9529 85.1463 22.7285 85.1463 22.4294C85.1463 22.2632 85.1048 22.1247 85.0218 22.0139C84.9447 21.8975 84.8291 21.7978 84.6749 21.7147C84.5208 21.6316 84.3281 21.5596 84.0969 21.4986C83.8716 21.4321 83.6137 21.3657 83.3231 21.2992C83.003 21.2271 82.7214 21.1496 82.4783 21.0665C82.2352 20.9834 82.0307 20.8837 81.8647 20.7673C81.7046 20.651 81.583 20.5097 81.5 20.3435C81.417 20.1773 81.3755 19.9778 81.3755 19.7452C81.3755 19.4626 81.4318 19.2133 81.5445 18.9972C81.6571 18.7812 81.8143 18.5983 82.0158 18.4488C82.2174 18.2992 82.4575 18.1884 82.7362 18.1163C83.0148 18.0388 83.3172 18 83.6433 18C84.0702 18 84.4555 18.0609 84.7994 18.1828C85.1433 18.3047 85.4486 18.4681 85.7154 18.6731L85.3419 19.2798Z" fill="white"/>
<path d="M0 5.90846C0 5.19833 0.116512 4.49376 0.349537 3.79473C0.593153 3.08461 0.942689 2.45215 1.39815 1.89737C1.8536 1.34258 2.41498 0.893201 3.08228 0.549234C3.74957 0.194172 4.5069 0.0166443 5.35426 0.0166443C6.36051 0.0166443 7.21846 0.255206 7.92812 0.732321C8.64838 1.20944 9.17798 1.83079 9.51693 2.59639L8.64309 3.16228C8.46302 2.77393 8.24059 2.4466 7.97579 2.1803C7.72158 1.914 7.44619 1.69765 7.14961 1.53121C6.85303 1.36478 6.54587 1.24826 6.22811 1.18169C5.91035 1.10402 5.59788 1.06519 5.29071 1.06519C4.61282 1.06519 4.01437 1.20943 3.49537 1.49792C2.97636 1.78641 2.53679 2.16366 2.17666 2.62968C1.82712 3.0957 1.56232 3.62275 1.38226 4.21082C1.20219 4.7878 1.11216 5.37587 1.11216 5.97503C1.11216 6.62968 1.21808 7.25659 1.42992 7.85576C1.65235 8.45492 1.94893 8.98751 2.31965 9.45353C2.70096 9.90846 3.14583 10.2746 3.65425 10.552C4.17325 10.8183 4.73463 10.9515 5.33838 10.9515C5.65614 10.9515 5.97919 10.9126 6.30755 10.835C6.64649 10.7462 6.96955 10.613 7.27672 10.4355C7.59448 10.2469 7.88576 10.0194 8.15056 9.75312C8.41536 9.47573 8.63779 9.14286 8.81785 8.75451L9.73936 9.25381C9.5593 9.69764 9.30509 10.0915 8.97673 10.4355C8.64838 10.7684 8.28296 11.0513 7.88046 11.2843C7.47796 11.5173 7.04899 11.6949 6.59353 11.8169C6.14867 11.939 5.7091 12 5.27482 12C4.50161 12 3.79194 11.8225 3.14583 11.4674C2.49972 11.1123 1.94363 10.6519 1.47759 10.086C1.01154 9.50901 0.646113 8.85992 0.381313 8.1387C0.127104 7.40638 0 6.66296 0 5.90846Z" fill="white"/>
<path d="M18.7785 11.9834C17.9947 11.9834 17.2744 11.8169 16.6177 11.484C15.9716 11.1401 15.4155 10.6907 14.9494 10.1359C14.4834 9.57004 14.1233 8.92649 13.8691 8.20527C13.6149 7.48405 13.4878 6.74619 13.4878 5.99168C13.4878 5.20388 13.6202 4.44938 13.885 3.72816C14.1603 3.00693 14.5364 2.36893 15.013 1.81414C15.4896 1.25936 16.051 0.821086 16.6971 0.49931C17.3432 0.16644 18.0423 0 18.7944 0C19.5782 0 20.2931 0.177527 20.9392 0.53259C21.5959 0.876557 22.152 1.33149 22.6075 1.89737C23.0735 2.46325 23.4337 3.1068 23.6879 3.82802C23.9421 4.53815 24.0692 5.26491 24.0692 6.00832C24.0692 6.79612 23.9315 7.55062 23.6561 8.27184C23.3913 8.99306 23.0206 9.63107 22.5439 10.1859C22.0779 10.7295 21.5218 11.1678 20.8757 11.5007C20.2296 11.8225 19.5305 11.9834 18.7785 11.9834ZM14.5999 5.99168C14.5999 6.63523 14.7005 7.25659 14.9018 7.85576C15.103 8.44383 15.389 8.97087 15.7597 9.43689C16.1305 9.89181 16.57 10.258 17.0784 10.5354C17.5869 10.8017 18.1535 10.9348 18.7785 10.9348C19.414 10.9348 19.9912 10.7906 20.5103 10.5021C21.0293 10.2136 21.4688 9.83634 21.829 9.37032C22.1891 8.9043 22.4645 8.37725 22.6551 7.78918C22.8564 7.20111 22.957 6.60194 22.957 5.99168C22.957 5.34813 22.8511 4.73232 22.6393 4.14424C22.438 3.54508 22.152 3.01803 21.7813 2.56311C21.4106 2.10819 20.971 1.74757 20.4626 1.48128C19.9542 1.20389 19.3928 1.06519 18.7785 1.06519C18.1429 1.06519 17.5657 1.20943 17.0467 1.49792C16.5277 1.77531 16.0881 2.14701 15.728 2.61303C15.3678 3.07905 15.0871 3.60611 14.8859 4.19418C14.6952 4.78225 14.5999 5.38141 14.5999 5.99168Z" fill="white"/>
<path d="M33.4462 10.9348C34.1558 10.9348 34.7437 10.7961 35.2097 10.5187C35.6864 10.2302 36.0624 9.85853 36.3378 9.4036C36.6238 8.93758 36.8197 8.41054 36.9256 7.82247C37.0421 7.2344 37.1004 6.64078 37.1004 6.04161V0.0832214H38.2126V6.04161C38.2126 6.8405 38.1278 7.60056 37.9583 8.32178C37.7889 9.0319 37.5135 9.65881 37.1322 10.2025C36.7615 10.7462 36.2742 11.1789 35.6705 11.5007C35.0667 11.8225 34.3306 11.9834 33.462 11.9834C32.5723 11.9834 31.8203 11.8169 31.2059 11.484C30.6022 11.1401 30.115 10.6907 29.7442 10.1359C29.3735 9.58114 29.1087 8.94868 28.9498 8.23856C28.791 7.52843 28.7115 6.79612 28.7115 6.04161V0.0832214H29.8078V6.04161C29.8078 6.66297 29.866 7.26768 29.9826 7.85576C30.0991 8.44383 30.295 8.96532 30.5704 9.42025C30.8564 9.87517 31.2324 10.2413 31.6985 10.5187C32.1645 10.7961 32.7471 10.9348 33.4462 10.9348Z" fill="white"/>
<path d="M42.8517 11.9001V0.0832214H47.5228C48.01 0.0832214 48.4549 0.194175 48.8574 0.416089C49.2705 0.626908 49.6253 0.909849 49.9219 1.26491C50.2184 1.60888 50.4515 2.00277 50.6209 2.4466C50.7904 2.89043 50.8752 3.33981 50.8752 3.79473C50.8752 4.28294 50.7957 4.75451 50.6368 5.20943C50.478 5.65326 50.2555 6.04716 49.9695 6.39112C49.6836 6.73509 49.3393 7.01248 48.9368 7.2233C48.5449 7.43412 48.1053 7.53953 47.6181 7.53953H43.9639V11.9001H42.8517ZM43.9639 6.50763H47.5704C47.8988 6.50763 48.1954 6.43551 48.4602 6.29127C48.7356 6.13593 48.9686 5.9362 49.1592 5.69209C49.3499 5.43689 49.4982 5.14841 49.6041 4.82663C49.71 4.49376 49.763 4.1498 49.763 3.79473C49.763 3.42857 49.6994 3.08461 49.5723 2.76283C49.4558 2.42996 49.2916 2.14147 49.0798 1.89737C48.8786 1.65326 48.6349 1.46464 48.349 1.33149C48.0736 1.18724 47.7823 1.11512 47.4751 1.11512H43.9639V6.50763Z" fill="white"/>
<path d="M54.7229 11.9001V0.0832214H55.835V10.8682H62.3491V11.9001H54.7229Z" fill="white"/>
<path d="M73.552 10.8682V11.9001H65.9734V0.0832214H73.409V1.11512H67.0856V5.37587H72.5987V6.35783H67.0856V10.8682H73.552Z" fill="white"/>
<path d="M77.6429 11.9001V0.0832214H82.4093C82.8965 0.0832214 83.3414 0.194175 83.7439 0.416089C84.157 0.626908 84.5118 0.909849 84.8084 1.26491C85.105 1.60888 85.3327 2.00277 85.4916 2.4466C85.6611 2.89043 85.7458 3.33981 85.7458 3.79473C85.7458 4.22747 85.6822 4.64355 85.5551 5.043C85.4386 5.43135 85.2691 5.7864 85.0467 6.10818C84.8349 6.41886 84.5754 6.68516 84.2682 6.90708C83.961 7.1179 83.6168 7.26214 83.2355 7.33981L86 11.9001H84.7448L82.0915 7.53953H78.7551V11.9001H77.6429ZM78.7551 6.50763H82.4411C82.7694 6.50763 83.066 6.43551 83.3308 6.29127C83.6062 6.13593 83.8392 5.93066 84.0299 5.67546C84.2205 5.42025 84.3688 5.13176 84.4747 4.80999C84.5807 4.48821 84.6336 4.1498 84.6336 3.79473C84.6336 3.43967 84.5701 3.10125 84.443 2.77948C84.3265 2.44661 84.1623 2.15812 83.9504 1.91401C83.7492 1.66991 83.5056 1.47573 83.2196 1.33149C82.9442 1.18724 82.6529 1.11512 82.3457 1.11512H78.7551V6.50763Z" fill="white"/>
</svg>
