<svg width="182" height="40" viewBox="0 0 182 40" fill="none" xmlns="http://www.w3.org/2000/svg">
<g filter="url(#filter0_d)">
<path fill-rule="evenodd" clip-rule="evenodd" d="M22 34C30.8366 34 38 26.8366 38 18C38 9.16344 30.8366 2 22 2C13.1634 2 6 9.16344 6 18C6 26.8366 13.1634 34 22 34ZM16.1573 21.376C17.3441 23.6303 20.1147 28.6667 22 28.6667C23.904 28.6667 26.7329 23.5337 27.9095 21.3097C26.3791 22.8456 24.2958 23.7905 22 23.7905C19.7374 23.7905 17.6812 22.8727 16.1573 21.376ZM14.6667 14.9524C14.6667 10.7445 17.9499 7.33333 22 7.33333C22.7083 7.33333 23.3931 7.43765 24.041 7.6323C26.0137 8.22498 27.6442 9.65514 28.5527 11.5281L25.5414 13.0896L25.4026 13.1619C25.3105 12.9734 25.2043 12.7935 25.0855 12.6238C24.3923 11.6339 23.2685 10.9905 22 10.9905C19.894 10.9905 18.1867 12.7643 18.1867 14.9524C18.1867 17.1405 19.894 18.9143 22 18.9143C23.0329 18.9143 23.9699 18.4876 24.6566 17.7947C24.9819 17.4664 25.251 17.0784 25.4476 16.6476L25.5414 16.7009L28.5964 18.285C28.0533 19.4433 27.2359 20.4372 26.232 21.1755C25.0364 22.0547 23.5763 22.5714 22 22.5714C17.9499 22.5714 14.6667 19.1603 14.6667 14.9524Z" fill="white"/>
</g>
<path d="M46.63 11.52C46.63 10.752 46.768 9.99 47.044 9.234C47.32 8.466 47.722 7.782 48.25 7.182C48.79 6.57 49.444 6.078 50.212 5.706C50.98 5.334 51.85 5.148 52.822 5.148C53.986 5.148 54.982 5.406 55.81 5.922C56.638 6.438 57.262 7.11 57.682 7.938L56.098 9C55.918 8.616 55.702 8.292 55.45 8.028C55.198 7.764 54.922 7.554 54.622 7.398C54.322 7.242 54.01 7.134 53.686 7.074C53.362 7.002 53.05 6.966 52.75 6.966C52.078 6.966 51.49 7.104 50.986 7.38C50.482 7.644 50.056 7.998 49.708 8.442C49.372 8.886 49.114 9.384 48.934 9.936C48.766 10.488 48.682 11.04 48.682 11.592C48.682 12.216 48.784 12.81 48.988 13.374C49.192 13.938 49.474 14.436 49.834 14.868C50.206 15.3 50.644 15.648 51.148 15.912C51.652 16.164 52.204 16.29 52.804 16.29C53.116 16.29 53.434 16.254 53.758 16.182C54.094 16.098 54.412 15.972 54.712 15.804C55.024 15.624 55.306 15.402 55.558 15.138C55.822 14.874 56.038 14.556 56.206 14.184L57.88 15.138C57.676 15.618 57.388 16.044 57.016 16.416C56.644 16.776 56.224 17.082 55.756 17.334C55.288 17.586 54.79 17.778 54.262 17.91C53.746 18.042 53.236 18.108 52.732 18.108C51.832 18.108 51.01 17.916 50.266 17.532C49.522 17.148 48.88 16.65 48.34 16.038C47.8 15.414 47.38 14.712 47.08 13.932C46.78 13.14 46.63 12.336 46.63 11.52ZM67.8116 18.09C66.8996 18.09 66.0656 17.91 65.3096 17.55C64.5656 17.178 63.9236 16.692 63.3836 16.092C62.8436 15.48 62.4236 14.784 62.1236 14.004C61.8356 13.224 61.6916 12.426 61.6916 11.61C61.6916 10.758 61.8476 9.942 62.1596 9.162C62.4716 8.382 62.8976 7.692 63.4376 7.092C63.9896 6.492 64.6376 6.018 65.3816 5.67C66.1376 5.31 66.9596 5.13 67.8476 5.13C68.7596 5.13 69.5876 5.322 70.3316 5.706C71.0876 6.078 71.7296 6.57 72.2576 7.182C72.7976 7.794 73.2116 8.49 73.4996 9.27C73.7996 10.038 73.9496 10.824 73.9496 11.628C73.9496 12.48 73.7936 13.296 73.4816 14.076C73.1816 14.856 72.7556 15.546 72.2036 16.146C71.6516 16.734 70.9976 17.208 70.2416 17.568C69.4976 17.916 68.6876 18.09 67.8116 18.09ZM63.7436 11.61C63.7436 12.21 63.8396 12.792 64.0316 13.356C64.2236 13.92 64.4936 14.418 64.8416 14.85C65.2016 15.282 65.6336 15.63 66.1376 15.894C66.6416 16.146 67.2056 16.272 67.8296 16.272C68.4776 16.272 69.0476 16.14 69.5396 15.876C70.0436 15.6 70.4696 15.24 70.8176 14.796C71.1656 14.352 71.4296 13.854 71.6096 13.302C71.7896 12.75 71.8796 12.186 71.8796 11.61C71.8796 10.998 71.7836 10.416 71.5916 9.864C71.3996 9.3 71.1236 8.808 70.7636 8.388C70.4156 7.956 69.9896 7.614 69.4856 7.362C68.9936 7.098 68.4416 6.966 67.8296 6.966C67.1816 6.966 66.6056 7.104 66.1016 7.38C65.5976 7.644 65.1716 7.992 64.8236 8.424C64.4756 8.856 64.2056 9.354 64.0136 9.918C63.8336 10.47 63.7436 11.034 63.7436 11.61ZM84.2448 16.272C84.9168 16.272 85.4748 16.14 85.9188 15.876C86.3628 15.612 86.7168 15.27 86.9808 14.85C87.2568 14.418 87.4488 13.932 87.5568 13.392C87.6768 12.84 87.7368 12.276 87.7368 11.7V5.22H89.7708V11.7C89.7708 12.576 89.6688 13.404 89.4648 14.184C89.2608 14.952 88.9368 15.63 88.4928 16.218C88.0488 16.794 87.4728 17.25 86.7648 17.586C86.0688 17.922 85.2288 18.09 84.2448 18.09C83.2248 18.09 82.3608 17.916 81.6528 17.568C80.9568 17.208 80.3928 16.734 79.9608 16.146C79.5288 15.546 79.2168 14.862 79.0248 14.094C78.8328 13.326 78.7368 12.528 78.7368 11.7V5.22H80.7528V11.7C80.7528 12.288 80.8068 12.858 80.9148 13.41C81.0348 13.95 81.2268 14.436 81.4908 14.868C81.7668 15.288 82.1268 15.63 82.5708 15.894C83.0268 16.146 83.5848 16.272 84.2448 16.272ZM95.332 18V5.22H100.696C101.272 5.22 101.8 5.34 102.28 5.58C102.772 5.82 103.192 6.138 103.54 6.534C103.888 6.918 104.158 7.362 104.35 7.866C104.554 8.358 104.656 8.862 104.656 9.378C104.656 9.918 104.56 10.44 104.368 10.944C104.188 11.436 103.93 11.88 103.594 12.276C103.258 12.66 102.85 12.972 102.37 13.212C101.902 13.44 101.38 13.554 100.804 13.554H97.348V18H95.332ZM97.348 11.772H100.678C100.966 11.772 101.224 11.712 101.452 11.592C101.692 11.472 101.896 11.304 102.064 11.088C102.232 10.872 102.364 10.62 102.46 10.332C102.556 10.044 102.604 9.726 102.604 9.378C102.604 9.018 102.55 8.694 102.442 8.406C102.334 8.118 102.184 7.872 101.992 7.668C101.8 7.452 101.578 7.29 101.326 7.182C101.086 7.062 100.834 7.002 100.57 7.002H97.348V11.772ZM109.427 18V5.22H111.443V16.218H118.301V18H109.427ZM131.585 16.218V18H122.819V5.22H131.423V7.002H124.835V10.638H130.541V12.312H124.835V16.218H131.585ZM136.544 18V5.22H142.106C142.682 5.22 143.21 5.34 143.69 5.58C144.182 5.82 144.602 6.138 144.95 6.534C145.298 6.918 145.568 7.362 145.76 7.866C145.964 8.358 146.066 8.862 146.066 9.378C146.066 9.81 146.006 10.224 145.886 10.62C145.766 11.016 145.598 11.382 145.382 11.718C145.166 12.054 144.902 12.348 144.59 12.6C144.278 12.84 143.936 13.02 143.564 13.14L146.57 18H144.284L141.512 13.554H138.56V18H136.544ZM138.56 11.772H142.088C142.376 11.772 142.634 11.712 142.862 11.592C143.102 11.46 143.306 11.286 143.474 11.07C143.642 10.842 143.774 10.584 143.87 10.296C143.966 10.008 144.014 9.702 144.014 9.378C144.014 9.054 143.954 8.748 143.834 8.46C143.726 8.172 143.576 7.92 143.384 7.704C143.204 7.488 142.988 7.32 142.736 7.2C142.496 7.068 142.244 7.002 141.98 7.002H138.56V11.772Z" fill="white"/>
<path d="M49.539 26.083H51.42C51.816 26.083 52.146 26.204 52.41 26.446C52.6813 26.688 52.817 26.996 52.817 27.37C52.817 27.612 52.7547 27.832 52.63 28.03C52.5127 28.2207 52.3587 28.3637 52.168 28.459C52.4173 28.547 52.6153 28.6973 52.762 28.91C52.9087 29.1153 52.982 29.3573 52.982 29.636C52.982 30.0393 52.839 30.3693 52.553 30.626C52.267 30.8753 51.9113 31 51.486 31H49.539V26.083ZM51.354 28.162C51.5667 28.162 51.739 28.096 51.871 27.964C52.0103 27.8247 52.08 27.6597 52.08 27.469C52.08 27.271 52.014 27.106 51.882 26.974C51.75 26.842 51.5777 26.776 51.365 26.776H50.265V28.162H51.354ZM51.464 30.307C51.6987 30.307 51.8857 30.2373 52.025 30.098C52.1717 29.9587 52.245 29.779 52.245 29.559C52.245 29.339 52.1717 29.1593 52.025 29.02C51.8857 28.8807 51.6987 28.811 51.464 28.811H50.265V30.307H51.464ZM64.7604 31.088C64.2031 31.088 63.7558 30.9083 63.4184 30.549C63.0884 30.1897 62.9234 29.7057 62.9234 29.097V26.083H63.6494V29.141C63.6494 29.5077 63.7484 29.8083 63.9464 30.043C64.1444 30.2777 64.4158 30.395 64.7604 30.395C65.1124 30.395 65.3874 30.2777 65.5854 30.043C65.7834 29.8083 65.8824 29.5077 65.8824 29.141V26.083H66.6084V29.097C66.6084 29.691 66.4398 30.1713 66.1024 30.538C65.7724 30.9047 65.3251 31.088 64.7604 31.088ZM78.3013 31.088C77.8907 31.088 77.524 30.9707 77.2013 30.736C76.8787 30.494 76.6587 30.1603 76.5413 29.735L77.2343 29.46C77.3003 29.7387 77.425 29.966 77.6083 30.142C77.799 30.3107 78.0337 30.395 78.3123 30.395C78.5543 30.395 78.7633 30.329 78.9393 30.197C79.1153 30.065 79.2033 29.8853 79.2033 29.658C79.2033 29.4527 79.1263 29.284 78.9723 29.152C78.8183 29.02 78.558 28.888 78.1913 28.756L77.8833 28.646C77.1133 28.3673 76.7283 27.9237 76.7283 27.315C76.7283 26.941 76.8677 26.6293 77.1463 26.38C77.4323 26.1233 77.799 25.995 78.2463 25.995C78.6717 25.995 79.009 26.0977 79.2583 26.303C79.515 26.5083 79.6873 26.743 79.7753 27.007L79.1153 27.282C79.064 27.1133 78.965 26.974 78.8183 26.864C78.6717 26.7467 78.4847 26.688 78.2573 26.688C78.0227 26.688 77.8283 26.7467 77.6743 26.864C77.5277 26.974 77.4543 27.1207 77.4543 27.304C77.4543 27.48 77.524 27.6267 77.6633 27.744C77.8027 27.8613 78.019 27.9713 78.3123 28.074L78.6203 28.184C79.0457 28.3307 79.3683 28.5177 79.5883 28.745C79.8157 28.965 79.9293 29.2657 79.9293 29.647C79.9293 29.9623 79.8487 30.23 79.6873 30.45C79.5333 30.6627 79.3317 30.824 79.0823 30.934C78.833 31.0367 78.5727 31.088 78.3013 31.088ZM89.9885 26.083H90.7145V31H89.9885V26.083ZM101.033 26.083H101.902L104.19 29.735L104.146 28.767V26.083H104.872V31H104.113L101.726 27.161L101.759 28.129V31H101.033V26.083ZM115.193 26.083H118.163V26.776H115.919V28.195H117.943V28.888H115.919V30.307H118.163V31H115.193V26.083ZM129.774 31.088C129.363 31.088 128.997 30.9707 128.674 30.736C128.351 30.494 128.131 30.1603 128.014 29.735L128.707 29.46C128.773 29.7387 128.898 29.966 129.081 30.142C129.272 30.3107 129.506 30.395 129.785 30.395C130.027 30.395 130.236 30.329 130.412 30.197C130.588 30.065 130.676 29.8853 130.676 29.658C130.676 29.4527 130.599 29.284 130.445 29.152C130.291 29.02 130.031 28.888 129.664 28.756L129.356 28.646C128.586 28.3673 128.201 27.9237 128.201 27.315C128.201 26.941 128.34 26.6293 128.619 26.38C128.905 26.1233 129.272 25.995 129.719 25.995C130.144 25.995 130.482 26.0977 130.731 26.303C130.988 26.5083 131.16 26.743 131.248 27.007L130.588 27.282C130.537 27.1133 130.438 26.974 130.291 26.864C130.144 26.7467 129.957 26.688 129.73 26.688C129.495 26.688 129.301 26.7467 129.147 26.864C129 26.974 128.927 27.1207 128.927 27.304C128.927 27.48 128.997 27.6267 129.136 27.744C129.275 27.8613 129.492 27.9713 129.785 28.074L130.093 28.184C130.518 28.3307 130.841 28.5177 131.061 28.745C131.288 28.965 131.402 29.2657 131.402 29.647C131.402 29.9623 131.321 30.23 131.16 30.45C131.006 30.6627 130.804 30.824 130.555 30.934C130.306 31.0367 130.045 31.088 129.774 31.088ZM142.924 31.088C142.514 31.088 142.147 30.9707 141.824 30.736C141.502 30.494 141.282 30.1603 141.164 29.735L141.857 29.46C141.923 29.7387 142.048 29.966 142.231 30.142C142.422 30.3107 142.657 30.395 142.935 30.395C143.177 30.395 143.386 30.329 143.562 30.197C143.738 30.065 143.826 29.8853 143.826 29.658C143.826 29.4527 143.749 29.284 143.595 29.152C143.441 29.02 143.181 28.888 142.814 28.756L142.506 28.646C141.736 28.3673 141.351 27.9237 141.351 27.315C141.351 26.941 141.491 26.6293 141.769 26.38C142.055 26.1233 142.422 25.995 142.869 25.995C143.295 25.995 143.632 26.0977 143.881 26.303C144.138 26.5083 144.31 26.743 144.398 27.007L143.738 27.282C143.687 27.1133 143.588 26.974 143.441 26.864C143.295 26.7467 143.108 26.688 142.88 26.688C142.646 26.688 142.451 26.7467 142.297 26.864C142.151 26.974 142.077 27.1207 142.077 27.304C142.077 27.48 142.147 27.6267 142.286 27.744C142.426 27.8613 142.642 27.9713 142.935 28.074L143.243 28.184C143.669 28.3307 143.991 28.5177 144.211 28.745C144.439 28.965 144.552 29.2657 144.552 29.647C144.552 29.9623 144.472 30.23 144.31 30.45C144.156 30.6627 143.955 30.824 143.705 30.934C143.456 31.0367 143.196 31.088 142.924 31.088Z" fill="white"/>
<path d="M158 6C158 5.44772 158.448 5 159 5H181C181.552 5 182 5.44772 182 6V16C182 16.5523 181.552 17 181 17H159C158.448 17 158 16.5523 158 16V6Z" fill="white"/>
<path d="M162.412 14.144C162.088 14.144 161.797 14.072 161.539 13.928C161.281 13.784 161.086 13.61 160.954 13.406H160.909V14H159.964V7.556H160.954V9.365L160.909 10.013H160.954C161.086 9.803 161.281 9.626 161.539 9.482C161.797 9.338 162.088 9.266 162.412 9.266C162.826 9.266 163.201 9.371 163.537 9.581C163.873 9.791 164.137 10.082 164.329 10.454C164.527 10.82 164.626 11.237 164.626 11.705C164.626 12.173 164.527 12.593 164.329 12.965C164.137 13.331 163.873 13.619 163.537 13.829C163.201 14.039 162.826 14.144 162.412 14.144ZM162.268 13.235C162.508 13.235 162.733 13.172 162.943 13.046C163.153 12.92 163.321 12.74 163.447 12.506C163.573 12.272 163.636 12.005 163.636 11.705C163.636 11.405 163.573 11.141 163.447 10.913C163.321 10.679 163.153 10.499 162.943 10.373C162.733 10.247 162.508 10.184 162.268 10.184C162.028 10.184 161.803 10.247 161.593 10.373C161.389 10.499 161.224 10.679 161.098 10.913C160.972 11.141 160.909 11.405 160.909 11.705C160.909 12.005 160.972 12.272 161.098 12.506C161.224 12.74 161.389 12.92 161.593 13.046C161.803 13.172 162.028 13.235 162.268 13.235ZM168.345 14.144C167.895 14.144 167.49 14.039 167.13 13.829C166.776 13.619 166.497 13.331 166.293 12.965C166.095 12.593 165.996 12.176 165.996 11.714C165.996 11.276 166.092 10.871 166.284 10.499C166.482 10.121 166.755 9.821 167.103 9.599C167.451 9.377 167.847 9.266 168.291 9.266C168.753 9.266 169.152 9.368 169.488 9.572C169.83 9.776 170.088 10.055 170.262 10.409C170.442 10.763 170.532 11.162 170.532 11.606C170.532 11.69 170.523 11.795 170.505 11.921H166.986C167.022 12.347 167.172 12.677 167.436 12.911C167.706 13.139 168.018 13.253 168.372 13.253C168.654 13.253 168.897 13.19 169.101 13.064C169.311 12.932 169.479 12.755 169.605 12.533L170.442 12.929C170.226 13.307 169.944 13.604 169.596 13.82C169.248 14.036 168.831 14.144 168.345 14.144ZM169.524 11.165C169.512 11.003 169.461 10.844 169.371 10.688C169.281 10.526 169.143 10.391 168.957 10.283C168.777 10.175 168.555 10.121 168.291 10.121C167.973 10.121 167.703 10.217 167.481 10.409C167.265 10.595 167.115 10.847 167.031 11.165H169.524ZM173.902 14.072C173.698 14.072 173.506 14.039 173.326 13.973C173.146 13.907 172.999 13.82 172.885 13.712C172.627 13.454 172.498 13.103 172.498 12.659V10.283H171.697V9.41H172.498V8.114H173.488V9.41H174.604V10.283H173.488V12.443C173.488 12.689 173.536 12.863 173.632 12.965C173.722 13.085 173.878 13.145 174.1 13.145C174.202 13.145 174.292 13.133 174.37 13.109C174.448 13.079 174.532 13.034 174.622 12.974V13.937C174.424 14.027 174.184 14.072 173.902 14.072ZM177.706 14.144C177.376 14.144 177.082 14.081 176.824 13.955C176.566 13.823 176.365 13.64 176.221 13.406C176.077 13.166 176.005 12.896 176.005 12.596C176.005 12.122 176.182 11.747 176.536 11.471C176.896 11.195 177.349 11.057 177.895 11.057C178.165 11.057 178.408 11.084 178.624 11.138C178.84 11.186 179.011 11.24 179.137 11.3V11.066C179.137 10.784 179.032 10.556 178.822 10.382C178.612 10.202 178.342 10.112 178.012 10.112C177.778 10.112 177.556 10.163 177.346 10.265C177.142 10.367 176.977 10.508 176.851 10.688L176.158 10.157C176.362 9.875 176.626 9.656 176.95 9.5C177.274 9.344 177.634 9.266 178.03 9.266C178.696 9.266 179.209 9.431 179.569 9.761C179.929 10.085 180.109 10.544 180.109 11.138V14H179.137V13.451H179.092C178.96 13.649 178.774 13.814 178.534 13.946C178.294 14.078 178.018 14.144 177.706 14.144ZM177.877 13.325C178.117 13.325 178.333 13.268 178.525 13.154C178.717 13.04 178.867 12.887 178.975 12.695C179.083 12.503 179.137 12.296 179.137 12.074C178.999 11.996 178.837 11.933 178.651 11.885C178.471 11.837 178.282 11.813 178.084 11.813C177.712 11.813 177.439 11.888 177.265 12.038C177.091 12.182 177.004 12.371 177.004 12.605C177.004 12.815 177.085 12.989 177.247 13.127C177.409 13.259 177.619 13.325 177.877 13.325Z" fill="#1078E1"/>
<defs>
<filter id="filter0_d" x="0" y="0" width="40" height="40" filterUnits="userSpaceOnUse" color-interpolation-filters="sRGB">
<feFlood flood-opacity="0" result="BackgroundImageFix"/>
<feColorMatrix in="SourceAlpha" type="matrix" values="0 0 0 0 0 0 0 0 0 0 0 0 0 0 0 0 0 0 127 0"/>
<feOffset dx="-2" dy="2"/>
<feGaussianBlur stdDeviation="2"/>
<feColorMatrix type="matrix" values="0 0 0 0 0 0 0 0 0 0 0 0 0 0 0 0 0 0 0.08 0"/>
<feBlend mode="normal" in2="BackgroundImageFix" result="effect1_dropShadow"/>
<feBlend mode="normal" in="SourceGraphic" in2="effect1_dropShadow" result="shape"/>
</filter>
</defs>
</svg>
