<svg width="24" height="24" viewBox="0 0 24 24" fill="none" xmlns="http://www.w3.org/2000/svg">
<path d="M12.2727 11.8889L12.1178 11.4135L11.7727 11.526V11.8889H12.2727ZM20 4.00001H20.5V3.50001L20 3.50001V4.00001ZM20 18V18.5H20.5V18H20ZM18 18V17.5H17.5V18H18ZM18 20L17.7226 20.416L18.5 20.9343V20H18ZM15 18L15.2774 17.584L15.1514 17.5H15V18ZM4 18H3.5V18.5H4V18ZM4 4L4 3.5L3.5 3.5V4H4ZM10.5 9.22222C10.5 8.84985 10.5972 8.41417 10.8528 8.08359C11.0909 7.77562 11.5106 7.5 12.2943 7.5V6.5C11.2382 6.5 10.5108 6.89104 10.0617 7.47196C9.63003 8.03027 9.5 8.7057 9.5 9.22222H10.5ZM12.2943 7.5C13.1403 7.5 13.6832 7.70469 14.0086 7.98814C14.3242 8.26301 14.5 8.66834 14.5 9.22221H15.5C15.5 8.44276 15.2428 7.73698 14.6654 7.23408C14.0979 6.73975 13.288 6.5 12.2943 6.5V7.5ZM14.5 9.22221C14.5 9.84035 14.0179 10.3767 13.3633 10.8034C13.0526 11.0059 12.7383 11.1599 12.4996 11.2636C12.3809 11.3152 12.2828 11.3536 12.2154 11.3787C12.1817 11.3912 12.1559 11.4004 12.1392 11.4062C12.1308 11.4091 12.1247 11.4112 12.1211 11.4124C12.1193 11.413 12.1181 11.4134 12.1175 11.4136C12.1173 11.4137 12.1171 11.4137 12.1172 11.4137C12.1172 11.4137 12.1173 11.4137 12.1174 11.4136C12.1174 11.4136 12.1175 11.4136 12.1175 11.4136C12.1177 11.4135 12.1178 11.4135 12.2727 11.8889C12.4277 12.3643 12.4278 12.3642 12.428 12.3642C12.428 12.3642 12.4282 12.3641 12.4283 12.3641C12.4286 12.364 12.4289 12.3639 12.4293 12.3638C12.43 12.3635 12.4308 12.3632 12.4319 12.3629C12.4339 12.3622 12.4366 12.3613 12.44 12.3602C12.4467 12.3579 12.4559 12.3548 12.4675 12.3507C12.4908 12.3427 12.5235 12.331 12.5644 12.3158C12.6462 12.2853 12.7611 12.2403 12.8981 12.1808C13.1708 12.0623 13.5383 11.883 13.9094 11.6411C14.6185 11.1789 15.5 10.3819 15.5 9.22221H14.5ZM11.7727 11.8889V13.6667H12.7727V11.8889H11.7727ZM11.7727 14.1111V15H12.7727V14.1111H11.7727ZM19.5 4.00001V18H20.5V4.00001H19.5ZM17.5 18V20H18.5V18H17.5ZM18.2774 19.584L15.2774 17.584L14.7226 18.416L17.7226 20.416L18.2774 19.584ZM15 17.5H4V18.5H15V17.5ZM4.5 18V4H3.5V18H4.5ZM4 4.5L20 4.50001V3.50001L4 3.5L4 4.5ZM20 17.5H18V18.5H20V17.5Z" fill="white"/>
</svg>
