<svg width="488" height="48" viewBox="0 0 488 48" fill="none" xmlns="http://www.w3.org/2000/svg">
<path d="M0 9.5V6.5C0.276142 6.5 0.5 6.27614 0.5 6V4C0.5 3.52451 0.594542 3.07236 0.765385 2.66038C0.867122 2.41504 0.759044 2.13506 0.523687 2.01991C0.879166 1.39716 1.39716 0.879166 2.01991 0.523687C2.13506 0.759044 2.41504 0.867122 2.66038 0.765385C3.07236 0.594542 3.52451 0.5 4 0.5H6.00853C6.28467 0.5 6.50853 0.276142 6.50853 0H9.52455C9.52455 0.276142 9.74841 0.5 10.0245 0.5H14.0405C14.3167 0.5 14.5405 0.276142 14.5405 0H17.5566C17.5566 0.276142 17.7804 0.5 18.0566 0.5H22.0726C22.3487 0.5 22.5726 0.276142 22.5726 0H25.5886C25.5886 0.276142 25.8125 0.5 26.0886 0.5H30.1046C30.3808 0.5 30.6046 0.276142 30.6046 0H33.6207C33.6207 0.276142 33.8445 0.5 34.1207 0.5H38.1367C38.4128 0.5 38.6367 0.276142 38.6367 0H41.6527C41.6527 0.276142 41.8766 0.5 42.1527 0.5H46.1687C46.4449 0.5 46.6687 0.276142 46.6687 0H49.6848C49.6848 0.276142 49.9086 0.5 50.1848 0.5H54.2008C54.4769 0.5 54.7008 0.276142 54.7008 0H57.7168C57.7168 0.276142 57.9407 0.5 58.2168 0.5H62.2328C62.509 0.5 62.7328 0.276142 62.7328 0H65.7488C65.7488 0.276142 65.9727 0.5 66.2488 0.5H70.2649C70.541 0.5 70.7649 0.276142 70.7649 0H73.7809C73.7809 0.276142 74.0048 0.5 74.2809 0.5H78.2969C78.5731 0.5 78.7969 0.276142 78.7969 0H81.8129C81.8129 0.276142 82.0368 0.5 82.3129 0.5H86.329C86.6051 0.5 86.829 0.276142 86.829 0H89.845C89.845 0.276142 90.0688 0.5 90.345 0.5H94.361C94.6371 0.5 94.861 0.276142 94.861 0H97.877C97.877 0.276142 98.1009 0.5 98.377 0.5H102.393C102.669 0.5 102.893 0.276142 102.893 0H105.909C105.909 0.276142 106.133 0.5 106.409 0.5H110.425C110.701 0.5 110.925 0.276142 110.925 0H113.941C113.941 0.276142 114.165 0.5 114.441 0.5H118.457C118.733 0.5 118.957 0.276142 118.957 0H121.973C121.973 0.276142 122.197 0.5 122.473 0.5H126.489C126.765 0.5 126.989 0.276142 126.989 0H130.005C130.005 0.276142 130.229 0.5 130.505 0.5H134.521C134.797 0.5 135.021 0.276142 135.021 0H138.037C138.037 0.276142 138.261 0.5 138.537 0.5H142.553C142.829 0.5 143.053 0.276142 143.053 0H146.069C146.069 0.276142 146.293 0.5 146.569 0.5H150.585C150.861 0.5 151.085 0.276142 151.085 0H154.101C154.101 0.276142 154.325 0.5 154.601 0.5H158.617C158.893 0.5 159.117 0.276142 159.117 0H162.133C162.133 0.276142 162.357 0.5 162.633 0.5H166.649C166.926 0.5 167.149 0.276142 167.149 0H170.165C170.165 0.276142 170.389 0.5 170.665 0.5H174.681C174.958 0.5 175.181 0.276142 175.181 0H178.197C178.197 0.276142 178.421 0.5 178.697 0.5H182.713C182.99 0.5 183.213 0.276142 183.213 0H186.229C186.229 0.276142 186.453 0.5 186.729 0.5H190.746C191.022 0.5 191.246 0.276142 191.246 0H194.262C194.262 0.276142 194.485 0.5 194.762 0.5H198.778C199.054 0.5 199.278 0.276142 199.278 0H202.294C202.294 0.276142 202.517 0.5 202.794 0.5H206.81C207.086 0.5 207.31 0.276142 207.31 0H210.326C210.326 0.276142 210.549 0.5 210.826 0.5H214.842C215.118 0.5 215.342 0.276142 215.342 0H218.358C218.358 0.276142 218.582 0.5 218.858 0.5H222.874C223.15 0.5 223.374 0.276142 223.374 0H226.39C226.39 0.276142 226.614 0.5 226.89 0.5H230.906C231.182 0.5 231.406 0.276142 231.406 0H234.422C234.422 0.276142 234.646 0.5 234.922 0.5H238.938C239.214 0.5 239.438 0.276142 239.438 0H242.454C242.454 0.276142 242.678 0.5 242.954 0.5H246.97C247.246 0.5 247.47 0.276142 247.47 0H250.486C250.486 0.276142 250.71 0.5 250.986 0.5H255.002C255.278 0.5 255.502 0.276142 255.502 0H258.518C258.518 0.276142 258.742 0.5 259.018 0.5H263.034C263.31 0.5 263.534 0.276142 263.534 0H266.55C266.55 0.276142 266.774 0.5 267.05 0.5H271.066C271.342 0.5 271.566 0.276142 271.566 0H274.582C274.582 0.276142 274.806 0.5 275.082 0.5H279.098C279.374 0.5 279.598 0.276142 279.598 0H282.614C282.614 0.276142 282.838 0.5 283.114 0.5H287.13C287.406 0.5 287.63 0.276142 287.63 0H290.646C290.646 0.276142 290.87 0.5 291.146 0.5H295.162C295.438 0.5 295.662 0.276142 295.662 0H298.678C298.678 0.276142 298.902 0.5 299.178 0.5H303.194C303.47 0.5 303.694 0.276142 303.694 0H306.71C306.71 0.276142 306.934 0.5 307.21 0.5H311.226C311.502 0.5 311.726 0.276142 311.726 0H314.742C314.742 0.276142 314.966 0.5 315.242 0.5H319.258C319.534 0.5 319.758 0.276142 319.758 0H322.774C322.774 0.276142 322.998 0.5 323.274 0.5H327.29C327.566 0.5 327.79 0.276142 327.79 0H330.806C330.806 0.276142 331.03 0.5 331.306 0.5H335.322C335.598 0.5 335.822 0.276142 335.822 0H338.838C338.838 0.276142 339.062 0.5 339.338 0.5H343.354C343.63 0.5 343.854 0.276142 343.854 0H346.87C346.87 0.276142 347.094 0.5 347.37 0.5H351.386C351.663 0.5 351.886 0.276142 351.886 0H354.902C354.902 0.276142 355.126 0.5 355.402 0.5H359.418C359.695 0.5 359.918 0.276142 359.918 0H362.934C362.934 0.276142 363.158 0.5 363.434 0.5H367.451C367.727 0.5 367.951 0.276142 367.951 0H370.967C370.967 0.276142 371.19 0.5 371.467 0.5H375.483C375.759 0.5 375.983 0.276142 375.983 0H378.999C378.999 0.276142 379.222 0.5 379.499 0.5H383.515C383.791 0.5 384.015 0.276142 384.015 0H387.031C387.031 0.276142 387.255 0.5 387.531 0.5H391.547C391.823 0.5 392.047 0.276142 392.047 0H395.063C395.063 0.276142 395.287 0.5 395.563 0.5H399.579C399.855 0.5 400.079 0.276142 400.079 0H403.095C403.095 0.276142 403.319 0.5 403.595 0.5H407.611C407.887 0.5 408.111 0.276142 408.111 0H411.127C411.127 0.276142 411.351 0.5 411.627 0.5H415.643C415.919 0.5 416.143 0.276142 416.143 0H419.159C419.159 0.276142 419.383 0.5 419.659 0.5H423.675C423.951 0.5 424.175 0.276142 424.175 0H427.191C427.191 0.276142 427.415 0.5 427.691 0.5H431.707C431.983 0.5 432.207 0.276142 432.207 0H435.223C435.223 0.276142 435.447 0.5 435.723 0.5H439.739C440.015 0.5 440.239 0.276142 440.239 0H443.255C443.255 0.276142 443.479 0.5 443.755 0.5H447.771C448.047 0.5 448.271 0.276142 448.271 0H451.287C451.287 0.276142 451.511 0.5 451.787 0.5H455.803C456.079 0.5 456.303 0.276142 456.303 0H459.319C459.319 0.276142 459.543 0.5 459.819 0.5H463.835C464.111 0.5 464.335 0.276142 464.335 0H467.351C467.351 0.276142 467.575 0.5 467.851 0.5H469.859C470.15 0.5 470.435 0.536025 470.711 0.60505C470.968 0.669673 471.229 0.521597 471.309 0.271808C471.609 0.388506 471.894 0.541036 472.157 0.726003C471.993 0.930536 472.015 1.22994 472.212 1.40848C472.422 1.59918 472.61 1.81684 472.771 2.05855L473.883 3.72522C474.036 3.95498 474.346 4.01707 474.576 3.86389L476.243 6.36517C476.014 6.51835 475.952 6.82879 476.105 7.05855L478.327 10.3919C478.48 10.6216 478.791 10.6837 479.02 10.5306L480.688 13.0318C480.458 13.185 480.396 13.4955 480.549 13.7252L482.771 17.0585C482.925 17.2883 483.235 17.3504 483.465 17.1972L485.132 19.6985C484.903 19.8517 484.84 20.1621 484.994 20.3919L486.105 22.0585C486.299 22.3496 486.445 22.6622 486.543 22.9857C486.62 23.2399 486.881 23.3878 487.136 23.3275C487.212 23.7725 487.212 24.2275 487.136 24.6725C486.881 24.6122 486.62 24.7601 486.543 25.0143C486.445 25.3378 486.299 25.6504 486.105 25.9415L484.994 27.6081C484.841 27.8379 484.903 28.1483 485.132 28.3015L483.465 30.8028C483.235 30.6496 482.925 30.7117 482.771 30.9415L480.549 34.2748C480.396 34.5046 480.458 34.815 480.688 34.9682L479.02 37.4694C478.791 37.3163 478.48 37.3784 478.327 37.6081L476.105 40.9415C475.952 41.1712 476.014 41.4817 476.243 41.6348L474.576 44.1361C474.346 43.9829 474.036 44.045 473.883 44.2748L472.771 45.9415C472.61 46.1832 472.422 46.4008 472.212 46.5915C472.015 46.7701 471.993 47.0695 472.157 47.274C471.894 47.459 471.609 47.6115 471.309 47.7282C471.229 47.4784 470.968 47.3303 470.711 47.395C470.435 47.464 470.15 47.5 469.859 47.5H467.851C467.575 47.5 467.351 47.7239 467.351 48H464.335C464.335 47.7239 464.111 47.5 463.835 47.5H459.819C459.543 47.5 459.319 47.7239 459.319 48H456.303C456.303 47.7239 456.079 47.5 455.803 47.5H451.787C451.511 47.5 451.287 47.7239 451.287 48H448.271C448.271 47.7239 448.047 47.5 447.771 47.5H443.755C443.478 47.5 443.255 47.7239 443.255 48H440.239C440.239 47.7239 440.015 47.5 439.739 47.5H435.723C435.446 47.5 435.223 47.7239 435.223 48H432.207C432.207 47.7239 431.983 47.5 431.707 47.5H427.691C427.414 47.5 427.191 47.7239 427.191 48H424.174C424.174 47.7239 423.951 47.5 423.674 47.5H419.658C419.382 47.5 419.158 47.7239 419.158 48H416.142C416.142 47.7239 415.919 47.5 415.642 47.5H411.626C411.35 47.5 411.126 47.7239 411.126 48H408.11C408.11 47.7239 407.887 47.5 407.61 47.5H403.594C403.318 47.5 403.094 47.7239 403.094 48H400.078C400.078 47.7239 399.854 47.5 399.578 47.5H395.562C395.286 47.5 395.062 47.7239 395.062 48H392.046C392.046 47.7239 391.822 47.5 391.546 47.5H387.53C387.254 47.5 387.03 47.7239 387.03 48H384.014C384.014 47.7239 383.79 47.5 383.514 47.5H379.498C379.222 47.5 378.998 47.7239 378.998 48H375.982C375.982 47.7239 375.758 47.5 375.482 47.5H371.466C371.19 47.5 370.966 47.7239 370.966 48H367.95C367.95 47.7239 367.726 47.5 367.45 47.5H363.434C363.158 47.5 362.934 47.7239 362.934 48H359.918C359.918 47.7239 359.694 47.5 359.418 47.5H355.402C355.126 47.5 354.902 47.7239 354.902 48H351.886C351.886 47.7239 351.662 47.5 351.386 47.5H347.37C347.094 47.5 346.87 47.7239 346.87 48H343.854C343.854 47.7239 343.63 47.5 343.354 47.5H339.338C339.062 47.5 338.838 47.7239 338.838 48H335.822C335.822 47.7239 335.598 47.5 335.322 47.5H331.306C331.03 47.5 330.806 47.7239 330.806 48H327.79C327.79 47.7239 327.566 47.5 327.29 47.5H323.274C322.998 47.5 322.774 47.7239 322.774 48H319.758C319.758 47.7239 319.534 47.5 319.258 47.5H315.242C314.966 47.5 314.742 47.7239 314.742 48H311.726C311.726 47.7239 311.502 47.5 311.226 47.5H307.21C306.934 47.5 306.71 47.7239 306.71 48H303.694C303.694 47.7239 303.47 47.5 303.194 47.5H299.178C298.902 47.5 298.678 47.7239 298.678 48H295.662C295.662 47.7239 295.438 47.5 295.162 47.5H291.146C290.87 47.5 290.646 47.7239 290.646 48H287.63C287.63 47.7239 287.406 47.5 287.13 47.5H283.114C282.838 47.5 282.614 47.7239 282.614 48H279.598C279.598 47.7239 279.374 47.5 279.098 47.5H275.082C274.806 47.5 274.582 47.7239 274.582 48H271.566C271.566 47.7239 271.342 47.5 271.066 47.5H267.05C266.773 47.5 266.55 47.7239 266.55 48H263.534C263.534 47.7239 263.31 47.5 263.034 47.5H259.018C258.741 47.5 258.518 47.7239 258.518 48H255.502C255.502 47.7239 255.278 47.5 255.002 47.5H250.986C250.709 47.5 250.486 47.7239 250.486 48H247.47C247.47 47.7239 247.246 47.5 246.97 47.5H242.954C242.677 47.5 242.454 47.7239 242.454 48H239.438C239.438 47.7239 239.214 47.5 238.938 47.5H234.921C234.645 47.5 234.421 47.7239 234.421 48H231.405C231.405 47.7239 231.182 47.5 230.905 47.5H226.889C226.613 47.5 226.389 47.7239 226.389 48H223.373C223.373 47.7239 223.15 47.5 222.873 47.5H218.857C218.581 47.5 218.357 47.7239 218.357 48H215.341C215.341 47.7239 215.118 47.5 214.841 47.5H210.825C210.549 47.5 210.325 47.7239 210.325 48H207.309C207.309 47.7239 207.085 47.5 206.809 47.5H202.793C202.517 47.5 202.293 47.7239 202.293 48H199.277C199.277 47.7239 199.053 47.5 198.777 47.5H194.761C194.485 47.5 194.261 47.7239 194.261 48H191.245C191.245 47.7239 191.021 47.5 190.745 47.5H186.729C186.453 47.5 186.229 47.7239 186.229 48H183.213C183.213 47.7239 182.989 47.5 182.713 47.5H178.697C178.421 47.5 178.197 47.7239 178.197 48H175.181C175.181 47.7239 174.957 47.5 174.681 47.5H170.665C170.389 47.5 170.165 47.7239 170.165 48H167.149C167.149 47.7239 166.925 47.5 166.649 47.5H162.633C162.357 47.5 162.133 47.7239 162.133 48H159.117C159.117 47.7239 158.893 47.5 158.617 47.5H154.601C154.325 47.5 154.101 47.7239 154.101 48H151.085C151.085 47.7239 150.861 47.5 150.585 47.5H146.569C146.293 47.5 146.069 47.7239 146.069 48H143.053C143.053 47.7239 142.829 47.5 142.553 47.5H138.537C138.261 47.5 138.037 47.7239 138.037 48H135.021C135.021 47.7239 134.797 47.5 134.521 47.5H130.505C130.229 47.5 130.005 47.7239 130.005 48H126.989C126.989 47.7239 126.765 47.5 126.489 47.5H122.473C122.197 47.5 121.973 47.7239 121.973 48H118.957C118.957 47.7239 118.733 47.5 118.457 47.5H114.441C114.165 47.5 113.941 47.7239 113.941 48H110.925C110.925 47.7239 110.701 47.5 110.425 47.5H106.409C106.133 47.5 105.909 47.7239 105.909 48H102.893C102.893 47.7239 102.669 47.5 102.393 47.5H98.3767C98.1005 47.5 97.8767 47.7239 97.8767 48H94.8606C94.8606 47.7239 94.6368 47.5 94.3606 47.5H90.3446C90.0685 47.5 89.8446 47.7239 89.8446 48H86.8286C86.8286 47.7239 86.6047 47.5 86.3286 47.5H82.3126C82.0364 47.5 81.8126 47.7239 81.8126 48H78.7965C78.7965 47.7239 78.5727 47.5 78.2965 47.5H74.2805C74.0044 47.5 73.7805 47.7239 73.7805 48H70.7645C70.7645 47.7239 70.5406 47.5 70.2645 47.5H66.2484C65.9723 47.5 65.7484 47.7239 65.7484 48H62.7324C62.7324 47.7239 62.5086 47.5 62.2324 47.5H58.2164C57.9402 47.5 57.7164 47.7239 57.7164 48H54.7004C54.7004 47.7239 54.4765 47.5 54.2004 47.5H50.1843C49.9082 47.5 49.6843 47.7239 49.6843 48H46.6683C46.6683 47.7239 46.4444 47.5 46.1683 47.5H42.1523C41.8761 47.5 41.6523 47.7239 41.6523 48H38.6362C38.6362 47.7239 38.4124 47.5 38.1362 47.5H34.1202C33.8441 47.5 33.6202 47.7239 33.6202 48H30.6042C30.6042 47.7239 30.3803 47.5 30.1042 47.5H26.0882C25.812 47.5 25.5882 47.7239 25.5882 48H22.5721C22.5721 47.7239 22.3483 47.5 22.0721 47.5H18.0561C17.78 47.5 17.5561 47.7239 17.5561 48H14.5401C14.5401 47.7239 14.3162 47.5 14.0401 47.5H10.024C9.74791 47.5 9.52405 47.7239 9.52405 48H6.50802C6.50802 47.7239 6.28416 47.5 6.00802 47.5H4.00001C3.52451 47.5 3.07236 47.4055 2.66038 47.2346C2.41504 47.1329 2.13506 47.241 2.01992 47.4763C1.39716 47.1208 0.879171 46.6028 0.52369 45.9801C0.759046 45.8649 0.867124 45.585 0.765386 45.3396C0.594543 44.9276 0.5 44.4755 0.5 44V42C0.5 41.7239 0.276142 41.5 0 41.5V38.5C0.276142 38.5 0.5 38.2761 0.5 38V34C0.5 33.7239 0.276142 33.5 0 33.5V30.5C0.276142 30.5 0.5 30.2761 0.5 30V26C0.5 25.7239 0.276142 25.5 0 25.5V22.5C0.276142 22.5 0.5 22.2761 0.5 22V18C0.5 17.7239 0.276142 17.5 0 17.5V14.5C0.276142 14.5 0.5 14.2761 0.5 14V10C0.5 9.72386 0.276142 9.5 0 9.5Z" stroke="#1078E1" stroke-linecap="round" stroke-linejoin="round" stroke-dasharray="4 4"/>
</svg>
