<svg width="64" height="64" viewBox="0 0 64 64" fill="none" xmlns="http://www.w3.org/2000/svg">
<path d="M0 0H64V60C64 62.2091 62.2091 64 60 64H4C1.79086 64 0 62.2091 0 60V0Z" fill="white"/>
<path d="M12 49.4583C12 49.162 12.0577 48.868 12.1732 48.5763C12.294 48.28 12.4672 48.0161 12.6929 47.7847C12.9239 47.5486 13.2047 47.3587 13.5354 47.2152C13.8661 47.0717 14.2414 47 14.6614 47C15.1601 47 15.5879 47.0995 15.9448 47.2986C16.3018 47.4976 16.5669 47.7569 16.7401 48.0763L16.1811 48.3958C16.0971 48.2384 15.9947 48.1064 15.874 47.9999C15.7585 47.8935 15.6299 47.8078 15.4881 47.743C15.3517 47.6782 15.2099 47.6319 15.063 47.6041C14.916 47.5763 14.7716 47.5624 14.6299 47.5624C14.3202 47.5624 14.0446 47.6203 13.8031 47.7361C13.5669 47.8472 13.3674 47.9953 13.2047 48.1805C13.042 48.361 12.9186 48.5671 12.8346 48.7985C12.7559 49.0254 12.7165 49.2546 12.7165 49.486C12.7165 49.7453 12.7638 49.993 12.8583 50.2291C12.958 50.4606 13.0945 50.6666 13.2677 50.8471C13.4409 51.0277 13.6456 51.1712 13.8819 51.2777C14.1181 51.3842 14.3753 51.4374 14.6535 51.4374C14.8005 51.4374 14.9501 51.4212 15.1023 51.3888C15.2598 51.3564 15.4094 51.3055 15.5511 51.236C15.6929 51.1619 15.8241 51.0717 15.9448 50.9652C16.0708 50.8541 16.1732 50.7221 16.2519 50.5694L16.8425 50.8541C16.7532 51.0393 16.6272 51.2036 16.4645 51.3471C16.307 51.486 16.1259 51.6041 15.9212 51.7013C15.7217 51.7985 15.5091 51.8726 15.2834 51.9235C15.0577 51.9744 14.8372 51.9999 14.622 51.9999C14.2388 51.9999 13.8871 51.9258 13.5669 51.7777C13.2467 51.6295 12.9685 51.4374 12.7323 51.2013C12.5013 50.9606 12.3202 50.6897 12.189 50.3888C12.063 50.0833 12 49.7731 12 49.4583Z" fill="black"/>
<path d="M20.9175 51.9999C20.5238 51.9999 20.1643 51.9305 19.8388 51.7916C19.5186 51.6481 19.243 51.4606 19.012 51.2291C18.7811 50.993 18.6026 50.7245 18.4766 50.4236C18.3506 50.1227 18.2876 49.8148 18.2876 49.5C18.2876 49.1713 18.3533 48.8565 18.4845 48.5555C18.621 48.2546 18.8073 47.9884 19.0435 47.7569C19.2798 47.5255 19.558 47.3426 19.8782 47.2083C20.2036 47.0694 20.5553 47 20.9333 47C21.327 47 21.6839 47.0741 22.0041 47.2222C22.3243 47.3657 22.5999 47.5555 22.8309 47.7917C23.0619 48.0278 23.2403 48.2963 23.3663 48.5972C23.4923 48.8935 23.5553 49.1967 23.5553 49.5069C23.5553 49.8356 23.487 50.1504 23.3506 50.4514C23.2193 50.7523 23.0356 51.0185 22.7994 51.25C22.5684 51.4768 22.2902 51.6597 21.9648 51.7986C21.6446 51.9328 21.2955 51.9999 20.9175 51.9999ZM19.0042 49.5C19.0042 49.75 19.0488 49.993 19.138 50.2291C19.2325 50.4606 19.3637 50.6666 19.5317 50.8472C19.6997 51.0277 19.9018 51.1713 20.138 51.2777C20.3742 51.3842 20.6367 51.4375 20.9254 51.4375C21.2246 51.4375 21.4923 51.3819 21.7285 51.2708C21.9648 51.1551 22.1642 51.0069 22.327 50.8263C22.4949 50.6412 22.6209 50.4328 22.7049 50.2014C22.7941 49.9699 22.8388 49.7361 22.8388 49.5C22.8388 49.25 22.7915 49.0092 22.697 48.7778C22.6078 48.5416 22.4766 48.3356 22.3033 48.1597C22.1354 47.9792 21.9333 47.8356 21.697 47.7292C21.4661 47.6227 21.2089 47.5694 20.9254 47.5694C20.6262 47.5694 20.3585 47.625 20.1223 47.7361C19.886 47.8472 19.6839 47.993 19.516 48.1736C19.3532 48.3542 19.2273 48.5602 19.138 48.7916C19.0488 49.0231 19.0042 49.2592 19.0042 49.5Z" fill="black"/>
<path d="M27.4687 51.438C27.7942 51.438 28.0645 51.3824 28.2797 51.2713C28.4949 51.1602 28.6655 51.0167 28.7915 50.8407C28.9227 50.6602 29.0146 50.4565 29.0671 50.2296C29.1196 49.9982 29.1458 49.7644 29.1458 49.5283V47.0352H29.8545V49.5283C29.8545 49.8616 29.8099 50.1787 29.7206 50.4796C29.6366 50.7759 29.5002 51.0375 29.3112 51.2643C29.1222 51.4912 28.8755 51.6717 28.571 51.806C28.2718 51.9356 27.907 52.0004 27.4766 52.0004C27.0304 52.0004 26.6551 51.931 26.3506 51.7921C26.0461 51.6532 25.7994 51.4704 25.6105 51.2435C25.4267 51.012 25.2929 50.7481 25.2089 50.4519C25.1301 50.1509 25.0908 49.8431 25.0908 49.5283V47.0352H25.7994V49.5283C25.7994 49.7736 25.8257 50.012 25.8782 50.2435C25.9359 50.4704 26.0278 50.6718 26.1538 50.8477C26.285 51.0236 26.4556 51.1671 26.6656 51.2782C26.8808 51.3847 27.1485 51.438 27.4687 51.438Z" fill="black"/>
<path d="M31.5713 51.9657V47.0352H33.902C34.1487 47.0352 34.3744 47.0815 34.5792 47.1741C34.7891 47.2621 34.9676 47.3824 35.1146 47.5352C35.2668 47.6834 35.3849 47.8523 35.4689 48.0422C35.5529 48.2273 35.5949 48.4172 35.5949 48.6116C35.5949 48.8153 35.5555 49.0121 35.4768 49.2019C35.398 49.3917 35.2852 49.5607 35.1382 49.7088C34.9965 49.857 34.8232 49.975 34.6185 50.063C34.4191 50.1509 34.196 50.1949 33.9492 50.1949H32.28V51.9657H31.5713ZM32.28 49.6394H33.9099C34.0569 49.6394 34.1881 49.6139 34.3036 49.563C34.4243 49.5074 34.5267 49.4333 34.6107 49.3408C34.6946 49.2435 34.7603 49.1324 34.8075 49.0074C34.8547 48.8824 34.8784 48.7505 34.8784 48.6116C34.8784 48.4681 34.8495 48.3338 34.7918 48.2088C34.7393 48.0838 34.6658 47.975 34.5713 47.8824C34.482 47.7898 34.3744 47.7181 34.2485 47.6672C34.1277 47.6162 33.9991 47.5908 33.8626 47.5908H32.28V49.6394Z" fill="black"/>
<path d="M37.1069 51.9657V47.0352H37.8155V51.4102H40.9336V51.9657H37.1069Z" fill="black"/>
<path d="M46.1302 51.4102V51.9657H42.335V47.0352H46.0594V47.5908H43.0437V49.188H45.6657V49.7088H43.0437V51.4102H46.1302Z" fill="black"/>
<path d="M47.7324 51.9657V47.0352H50.1261C50.3728 47.0352 50.5985 47.0815 50.8033 47.1741C51.0132 47.2621 51.1917 47.3824 51.3387 47.5352C51.4909 47.6834 51.609 47.8523 51.693 48.0422C51.777 48.2273 51.819 48.4172 51.819 48.6116C51.819 48.7829 51.7901 48.9496 51.7324 49.1116C51.6799 49.269 51.6012 49.4125 51.4962 49.5421C51.3964 49.6718 51.2731 49.7829 51.1261 49.8755C50.9844 49.9681 50.8243 50.0352 50.6458 50.0769L52.0001 51.9657H51.197L49.9214 50.1949H48.4411V51.9657H47.7324ZM48.4411 49.6394H50.134C50.281 49.6394 50.4122 49.6116 50.5277 49.556C50.6484 49.5005 50.7508 49.4264 50.8348 49.3338C50.9188 49.2366 50.9844 49.1255 51.0316 49.0005C51.0789 48.8755 51.1025 48.7459 51.1025 48.6116C51.1025 48.4727 51.0736 48.3431 51.0159 48.2227C50.9634 48.0977 50.8899 47.9889 50.7954 47.8963C50.7062 47.7991 50.5985 47.725 50.4726 47.6741C50.3518 47.6185 50.2232 47.5908 50.0867 47.5908H48.4411V49.6394Z" fill="black"/>
<path fill-rule="evenodd" clip-rule="evenodd" d="M32 42C40.2843 42 47 35.2843 47 27C47 18.7157 40.2843 12 32 12C23.7157 12 17 18.7157 17 27C17 35.2843 23.7157 42 32 42ZM32 15.4615C27.5392 15.4615 23.9231 19.1515 23.9231 23.7033C23.9231 28.2551 27.5392 31.9451 32 31.9451C33.7361 31.9451 35.3443 31.3861 36.6611 30.435C37.7668 29.6364 38.6671 28.5613 39.2653 27.3083L35.9005 25.5947L35.7972 25.5371C35.5807 26.0031 35.2842 26.4228 34.9259 26.7779C34.1696 27.5275 33.1376 27.989 32 27.989C29.6804 27.989 27.8 26.0702 27.8 23.7033C27.8 21.3364 29.6804 19.4176 32 19.4176C33.3971 19.4176 34.6348 20.1136 35.3984 21.1844C35.5293 21.368 35.6462 21.5625 35.7477 21.7665L35.9005 21.6883L39.2172 19.9992C38.2166 17.9731 36.4207 16.4261 34.2479 15.7849C33.5343 15.5744 32.7801 15.4615 32 15.4615ZM32 38.5385C29.9236 38.5385 26.872 33.0905 25.5648 30.652C27.2433 32.271 29.508 33.2637 32 33.2637C34.5286 33.2637 36.8232 32.2416 38.5087 30.5802C37.2128 32.986 34.097 38.5385 32 38.5385Z" fill="#1078E1"/>
</svg>
