<svg width="24" height="24" viewBox="0 0 24 24" fill="none" xmlns="http://www.w3.org/2000/svg">
<path fill-rule="evenodd" clip-rule="evenodd" d="M12 24C18.6274 24 24 18.6274 24 12C24 5.37258 18.6274 0 12 0C5.37258 0 0 5.37258 0 12C0 18.6274 5.37258 24 12 24ZM12 3C8.43139 3 5.53846 5.87817 5.53846 9.42857C5.53846 12.979 8.43139 15.8571 12 15.8571C13.3889 15.8571 14.6754 15.4212 15.7289 14.6793C16.6135 14.0564 17.3337 13.2178 17.8123 12.2405L15.1204 10.9039L15.0378 10.8589C14.8646 11.2224 14.6274 11.5498 14.3407 11.8268C13.7357 12.4114 12.9101 12.7714 12 12.7714C10.1443 12.7714 8.64 11.2748 8.64 9.42857C8.64 7.58236 10.1443 6.08571 12 6.08571C13.1177 6.08571 14.1079 6.62863 14.7187 7.46384C14.8234 7.60701 14.917 7.75877 14.9981 7.91786L15.1204 7.85686L17.7737 6.53935C16.9732 4.95903 15.5365 3.75233 13.7983 3.25226C13.2275 3.08802 12.6241 3 12 3ZM12 21C10.3389 21 7.89764 16.7506 6.85188 14.8485C8.19462 16.1114 10.0064 16.8857 12 16.8857C14.0229 16.8857 15.8585 16.0885 17.207 14.7926C16.1703 16.669 13.6776 21 12 21Z" fill="#1078E1"/>
</svg>
