<svg width="206" height="40" viewBox="0 0 206 40" fill="none" xmlns="http://www.w3.org/2000/svg">
<path d="M59.9451 33.6842C59.9451 33.8735 59.9041 34.0466 59.822 34.2036C59.7448 34.3606 59.6362 34.4945 59.4963 34.6053C59.3612 34.7161 59.2019 34.8015 59.0185 34.8615C58.84 34.9215 58.6469 34.9515 58.4394 34.9515H56V30.0346H58.5552C58.7338 30.0346 58.8955 30.0716 59.0402 30.1454C59.185 30.2193 59.3081 30.3162 59.4094 30.4363C59.5108 30.5517 59.588 30.6856 59.641 30.838C59.699 30.9857 59.7279 31.1357 59.7279 31.2881C59.7279 31.5328 59.6628 31.759 59.5325 31.9668C59.407 32.1745 59.226 32.3292 58.9896 32.4307C59.2839 32.5139 59.5156 32.6685 59.6845 32.8947C59.8582 33.1163 59.9451 33.3795 59.9451 33.6842ZM59.2864 33.5734C59.2864 33.4626 59.2646 33.3564 59.2212 33.2549C59.1826 33.1487 59.1271 33.0563 59.0547 32.9778C58.9872 32.8994 58.9051 32.837 58.8086 32.7909C58.7121 32.7447 58.6059 32.7216 58.4901 32.7216H56.6515V34.4114H58.4394C58.5601 34.4114 58.6711 34.3883 58.7724 34.3421C58.8737 34.2959 58.963 34.2359 59.0402 34.162C59.1175 34.0836 59.1778 33.9935 59.2212 33.892C59.2646 33.7904 59.2864 33.6842 59.2864 33.5734ZM56.6515 30.5748V32.2161H58.2874C58.4032 32.2161 58.5094 32.1953 58.6059 32.1537C58.7024 32.1076 58.7845 32.0476 58.852 31.9737C58.9244 31.8998 58.9799 31.8144 59.0185 31.7175C59.062 31.6159 59.0837 31.5097 59.0837 31.3989C59.0837 31.2835 59.0644 31.175 59.0258 31.0734C58.9872 30.9718 58.9341 30.8841 58.8665 30.8102C58.8038 30.7364 58.7241 30.6787 58.6276 30.6371C58.5359 30.5956 58.437 30.5748 58.3308 30.5748H56.6515Z" fill="white"/>
<path d="M68.0372 34.4252C68.3364 34.4252 68.5849 34.3698 68.7827 34.259C68.9806 34.1482 69.1374 34.0051 69.2533 33.8296C69.3739 33.6496 69.4583 33.4464 69.5066 33.2202C69.5549 32.9894 69.579 32.7562 69.579 32.5208V30.0346H70.2305V32.5208C70.2305 32.8532 70.1895 33.1694 70.1074 33.4695C70.0302 33.765 69.9047 34.0259 69.731 34.2521C69.5573 34.4783 69.3305 34.6584 69.0506 34.7922C68.7755 34.9215 68.4401 34.9861 68.0444 34.9861C67.6342 34.9861 67.2892 34.9169 67.0093 34.7784C66.7294 34.6399 66.5026 34.4575 66.3288 34.2313C66.1599 34.0005 66.0369 33.7373 65.9597 33.4418C65.8873 33.1417 65.8511 32.8347 65.8511 32.5208V30.0346H66.5026V32.5208C66.5026 32.7655 66.5267 33.0032 66.5749 33.2341C66.628 33.4603 66.7125 33.6611 66.8283 33.8366C66.9489 34.012 67.1058 34.1551 67.2988 34.2659C67.4967 34.3721 67.7428 34.4252 68.0372 34.4252Z" fill="white"/>
<path d="M79.4734 31.0665C79.4155 31.0018 79.3383 30.9395 79.2418 30.8795C79.1452 30.8195 79.0367 30.7664 78.916 30.7202C78.7954 30.6694 78.6627 30.6302 78.5179 30.6025C78.3779 30.5702 78.2308 30.554 78.0763 30.554C77.6758 30.554 77.3814 30.6256 77.1932 30.7687C77.0098 30.9118 76.9181 31.108 76.9181 31.3573C76.9181 31.4912 76.9447 31.602 76.9978 31.6898C77.0509 31.7775 77.1329 31.8536 77.2439 31.9183C77.3597 31.9783 77.5021 32.0314 77.671 32.0776C77.8399 32.1237 78.0401 32.1722 78.2718 32.223C78.5372 32.2784 78.7761 32.343 78.9884 32.4169C79.2056 32.4862 79.3889 32.5739 79.5385 32.6801C79.693 32.7862 79.8088 32.9155 79.886 33.0679C79.968 33.2202 80.0091 33.4072 80.0091 33.6288C80.0091 33.8643 79.9608 34.0697 79.8643 34.2451C79.7678 34.416 79.6351 34.5591 79.4662 34.6745C79.3021 34.7853 79.1066 34.8684 78.8798 34.9238C78.653 34.9746 78.4069 35 78.1415 35C77.7458 35 77.3694 34.9423 77.0122 34.8269C76.66 34.7068 76.3391 34.5337 76.0495 34.3075L76.3608 33.7812C76.438 33.8597 76.5369 33.9381 76.6576 34.0166C76.783 34.0951 76.923 34.1667 77.0774 34.2313C77.2367 34.2913 77.4056 34.3421 77.5841 34.3837C77.7675 34.4206 77.9581 34.4391 78.156 34.4391C78.5227 34.4391 78.8074 34.3767 79.0101 34.2521C79.2128 34.1274 79.3141 33.9404 79.3141 33.6911C79.3141 33.5526 79.2804 33.4372 79.2128 33.3449C79.1501 33.2479 79.056 33.1648 78.9305 33.0956C78.805 33.0263 78.6482 32.9663 78.46 32.9155C78.2766 32.8601 78.0667 32.8047 77.8302 32.7493C77.5696 32.6893 77.3404 32.6247 77.1425 32.5554C76.9447 32.4862 76.7782 32.403 76.6431 32.3061C76.5128 32.2091 76.4139 32.0914 76.3463 31.9529C76.2787 31.8144 76.245 31.6482 76.245 31.4543C76.245 31.2188 76.2908 31.0111 76.3825 30.831C76.4742 30.651 76.6021 30.4986 76.7661 30.374C76.9302 30.2493 77.1257 30.157 77.3525 30.097C77.5793 30.0323 77.8254 30 78.0908 30C78.4383 30 78.7519 30.0508 79.0318 30.1524C79.3117 30.2539 79.5603 30.3901 79.7774 30.5609L79.4734 31.0665Z" fill="white"/>
<path d="M85.933 34.9515V30.0346H86.5845V34.9515H85.933Z" fill="white"/>
<path d="M93.5319 31.1981V34.9515H92.8804V30.0346H93.3871L96.5721 33.8643V30.0416H97.2236V34.9515H96.6735L93.5319 31.1981Z" fill="white"/>
<path d="M107.007 34.3975V34.9515H103.518V30.0346H106.942V30.5886H104.169V32.1814H106.58V32.7008H104.169V34.3975H107.007Z" fill="white"/>
<path d="M115.986 31.0665C115.928 31.0018 115.851 30.9395 115.755 30.8795C115.658 30.8195 115.549 30.7664 115.429 30.7202C115.308 30.6694 115.175 30.6302 115.031 30.6025C114.891 30.5702 114.744 30.554 114.589 30.554C114.189 30.554 113.894 30.6256 113.706 30.7687C113.523 30.9118 113.431 31.108 113.431 31.3573C113.431 31.4912 113.458 31.602 113.511 31.6898C113.564 31.7775 113.646 31.8536 113.757 31.9183C113.873 31.9783 114.015 32.0314 114.184 32.0776C114.353 32.1237 114.553 32.1722 114.785 32.223C115.05 32.2784 115.289 32.343 115.501 32.4169C115.718 32.4862 115.902 32.5739 116.051 32.6801C116.206 32.7862 116.322 32.9155 116.399 33.0679C116.481 33.2202 116.522 33.4072 116.522 33.6288C116.522 33.8643 116.474 34.0697 116.377 34.2451C116.281 34.416 116.148 34.5591 115.979 34.6745C115.815 34.7853 115.619 34.8684 115.393 34.9238C115.166 34.9746 114.92 35 114.654 35C114.259 35 113.882 34.9423 113.525 34.8269C113.173 34.7068 112.852 34.5337 112.562 34.3075L112.874 33.7812C112.951 33.8597 113.05 33.9381 113.17 34.0166C113.296 34.0951 113.436 34.1667 113.59 34.2313C113.749 34.2913 113.918 34.3421 114.097 34.3837C114.28 34.4206 114.471 34.4391 114.669 34.4391C115.036 34.4391 115.32 34.3767 115.523 34.2521C115.726 34.1274 115.827 33.9404 115.827 33.6911C115.827 33.5526 115.793 33.4372 115.726 33.3449C115.663 33.2479 115.569 33.1648 115.443 33.0956C115.318 33.0263 115.161 32.9663 114.973 32.9155C114.789 32.8601 114.58 32.8047 114.343 32.7493C114.082 32.6893 113.853 32.6247 113.655 32.5554C113.458 32.4862 113.291 32.403 113.156 32.3061C113.026 32.2091 112.927 32.0914 112.859 31.9529C112.792 31.8144 112.758 31.6482 112.758 31.4543C112.758 31.2188 112.804 31.0111 112.895 30.831C112.987 30.651 113.115 30.4986 113.279 30.374C113.443 30.2493 113.638 30.157 113.865 30.097C114.092 30.0323 114.338 30 114.604 30C114.951 30 115.265 30.0508 115.545 30.1524C115.825 30.2539 116.073 30.3901 116.29 30.5609L115.986 31.0665Z" fill="white"/>
<path d="M125.464 31.0665C125.406 31.0018 125.329 30.9395 125.233 30.8795C125.136 30.8195 125.028 30.7664 124.907 30.7202C124.786 30.6694 124.654 30.6302 124.509 30.6025C124.369 30.5702 124.222 30.554 124.067 30.554C123.667 30.554 123.372 30.6256 123.184 30.7687C123.001 30.9118 122.909 31.108 122.909 31.3573C122.909 31.4912 122.936 31.602 122.989 31.6898C123.042 31.7775 123.124 31.8536 123.235 31.9183C123.351 31.9783 123.493 32.0314 123.662 32.0776C123.831 32.1237 124.031 32.1722 124.263 32.223C124.528 32.2784 124.767 32.343 124.979 32.4169C125.197 32.4862 125.38 32.5739 125.529 32.6801C125.684 32.7862 125.8 32.9155 125.877 33.0679C125.959 33.2202 126 33.4072 126 33.6288C126 33.8643 125.952 34.0697 125.855 34.2451C125.759 34.416 125.626 34.5591 125.457 34.6745C125.293 34.7853 125.098 34.8684 124.871 34.9238C124.644 34.9746 124.398 35 124.132 35C123.737 35 123.36 34.9423 123.003 34.8269C122.651 34.7068 122.33 34.5337 122.04 34.3075L122.352 33.7812C122.429 33.8597 122.528 33.9381 122.648 34.0166C122.774 34.0951 122.914 34.1667 123.068 34.2313C123.228 34.2913 123.396 34.3421 123.575 34.3837C123.758 34.4206 123.949 34.4391 124.147 34.4391C124.514 34.4391 124.798 34.3767 125.001 34.2521C125.204 34.1274 125.305 33.9404 125.305 33.6911C125.305 33.5526 125.271 33.4372 125.204 33.3449C125.141 33.2479 125.047 33.1648 124.921 33.0956C124.796 33.0263 124.639 32.9663 124.451 32.9155C124.268 32.8601 124.058 32.8047 123.821 32.7493C123.561 32.6893 123.331 32.6247 123.133 32.5554C122.936 32.4862 122.769 32.403 122.634 32.3061C122.504 32.2091 122.405 32.0914 122.337 31.9529C122.27 31.8144 122.236 31.6482 122.236 31.4543C122.236 31.2188 122.282 31.0111 122.373 30.831C122.465 30.651 122.593 30.4986 122.757 30.374C122.921 30.2493 123.117 30.157 123.343 30.097C123.57 30.0323 123.816 30 124.082 30C124.429 30 124.743 30.0508 125.023 30.1524C125.303 30.2539 125.551 30.3901 125.768 30.5609L125.464 31.0665Z" fill="white"/>
<g filter="url(#filter0_d)">
<path fill-rule="evenodd" clip-rule="evenodd" d="M22 34C30.8366 34 38 26.8366 38 18C38 9.16344 30.8366 2 22 2C13.1634 2 6 9.16344 6 18C6 26.8366 13.1634 34 22 34ZM16.1573 21.376C17.3441 23.6303 20.1147 28.6667 22 28.6667C23.904 28.6667 26.7329 23.5337 27.9095 21.3097C26.3791 22.8456 24.2958 23.7905 22 23.7905C19.7374 23.7905 17.6812 22.8727 16.1573 21.376ZM14.6667 14.9524C14.6667 10.7445 17.9499 7.33333 22 7.33333C22.7083 7.33333 23.3931 7.43765 24.041 7.6323C26.0137 8.22498 27.6442 9.65514 28.5527 11.5281L25.5414 13.0896L25.4026 13.1619C25.3105 12.9734 25.2043 12.7935 25.0855 12.6238C24.3923 11.6339 23.2685 10.9905 22 10.9905C19.894 10.9905 18.1867 12.7643 18.1867 14.9524C18.1867 17.1405 19.894 18.9143 22 18.9143C23.0329 18.9143 23.9699 18.4876 24.6566 17.7947C24.9819 17.4664 25.251 17.0784 25.4476 16.6476L25.5414 16.7009L28.5964 18.285C28.0533 19.4433 27.2359 20.4372 26.232 21.1755C25.0364 22.0547 23.5763 22.5714 22 22.5714C17.9499 22.5714 14.6667 19.1603 14.6667 14.9524Z" fill="white"/>
</g>
<path d="M54.7 16.8C54.7 15.9467 54.8533 15.1 55.16 14.26C55.4667 13.4067 55.9133 12.6467 56.5 11.98C57.1 11.3 57.8267 10.7533 58.68 10.34C59.5333 9.92667 60.5 9.72 61.58 9.72C62.8733 9.72 63.98 10.0067 64.9 10.58C65.82 11.1533 66.5133 11.9 66.98 12.82L65.22 14C65.02 13.5733 64.78 13.2133 64.5 12.92C64.22 12.6267 63.9133 12.3933 63.58 12.22C63.2467 12.0467 62.9 11.9267 62.54 11.86C62.18 11.78 61.8333 11.74 61.5 11.74C60.7533 11.74 60.1 11.8933 59.54 12.2C58.98 12.4933 58.5067 12.8867 58.12 13.38C57.7467 13.8733 57.46 14.4267 57.26 15.04C57.0733 15.6533 56.98 16.2667 56.98 16.88C56.98 17.5733 57.0933 18.2333 57.32 18.86C57.5467 19.4867 57.86 20.04 58.26 20.52C58.6733 21 59.16 21.3867 59.72 21.68C60.28 21.96 60.8933 22.1 61.56 22.1C61.9067 22.1 62.26 22.06 62.62 21.98C62.9933 21.8867 63.3467 21.7467 63.68 21.56C64.0267 21.36 64.34 21.1133 64.62 20.82C64.9133 20.5267 65.1533 20.1733 65.34 19.76L67.2 20.82C66.9733 21.3533 66.6533 21.8267 66.24 22.24C65.8267 22.64 65.36 22.98 64.84 23.26C64.32 23.54 63.7667 23.7533 63.18 23.9C62.6067 24.0467 62.04 24.12 61.48 24.12C60.48 24.12 59.5667 23.9067 58.74 23.48C57.9133 23.0533 57.2 22.5 56.6 21.82C56 21.1267 55.5333 20.3467 55.2 19.48C54.8667 18.6 54.7 17.7067 54.7 16.8ZM76.6352 24.1C75.6218 24.1 74.6952 23.9 73.8552 23.5C73.0285 23.0867 72.3152 22.5467 71.7152 21.88C71.1152 21.2 70.6485 20.4267 70.3152 19.56C69.9952 18.6933 69.8352 17.8067 69.8352 16.9C69.8352 15.9533 70.0085 15.0467 70.3552 14.18C70.7018 13.3133 71.1752 12.5467 71.7752 11.88C72.3885 11.2133 73.1085 10.6867 73.9352 10.3C74.7752 9.9 75.6885 9.7 76.6752 9.7C77.6885 9.7 78.6085 9.91333 79.4352 10.34C80.2752 10.7533 80.9885 11.3 81.5752 11.98C82.1752 12.66 82.6352 13.4333 82.9552 14.3C83.2885 15.1533 83.4552 16.0267 83.4552 16.92C83.4552 17.8667 83.2818 18.7733 82.9352 19.64C82.6018 20.5067 82.1285 21.2733 81.5152 21.94C80.9018 22.5933 80.1752 23.12 79.3352 23.52C78.5085 23.9067 77.6085 24.1 76.6352 24.1ZM72.1152 16.9C72.1152 17.5667 72.2218 18.2133 72.4352 18.84C72.6485 19.4667 72.9485 20.02 73.3352 20.5C73.7352 20.98 74.2152 21.3667 74.7752 21.66C75.3352 21.94 75.9618 22.08 76.6552 22.08C77.3752 22.08 78.0085 21.9333 78.5552 21.64C79.1152 21.3333 79.5885 20.9333 79.9752 20.44C80.3618 19.9467 80.6552 19.3933 80.8552 18.78C81.0552 18.1667 81.1552 17.54 81.1552 16.9C81.1552 16.22 81.0485 15.5733 80.8352 14.96C80.6218 14.3333 80.3152 13.7867 79.9152 13.32C79.5285 12.84 79.0552 12.46 78.4952 12.18C77.9485 11.8867 77.3352 11.74 76.6552 11.74C75.9352 11.74 75.2952 11.8933 74.7352 12.2C74.1752 12.4933 73.7018 12.88 73.3152 13.36C72.9285 13.84 72.6285 14.3933 72.4152 15.02C72.2152 15.6333 72.1152 16.26 72.1152 16.9ZM93.2942 22.08C94.0409 22.08 94.6609 21.9333 95.1542 21.64C95.6476 21.3467 96.0409 20.9667 96.3342 20.5C96.6409 20.02 96.8542 19.48 96.9742 18.88C97.1076 18.2667 97.1742 17.64 97.1742 17V9.8H99.4342V17C99.4342 17.9733 99.3209 18.8933 99.0942 19.76C98.8676 20.6133 98.5076 21.3667 98.0142 22.02C97.5209 22.66 96.8809 23.1667 96.0942 23.54C95.3209 23.9133 94.3876 24.1 93.2942 24.1C92.1609 24.1 91.2009 23.9067 90.4142 23.52C89.6409 23.12 89.0142 22.5933 88.5342 21.94C88.0542 21.2733 87.7076 20.5133 87.4942 19.66C87.2809 18.8067 87.1742 17.92 87.1742 17V9.8H89.4142V17C89.4142 17.6533 89.4742 18.2867 89.5942 18.9C89.7276 19.5 89.9409 20.04 90.2342 20.52C90.5409 20.9867 90.9409 21.3667 91.4342 21.66C91.9409 21.94 92.5609 22.08 93.2942 22.08ZM104.013 24V9.8H109.973C110.613 9.8 111.2 9.93333 111.733 10.2C112.28 10.4667 112.747 10.82 113.133 11.26C113.52 11.6867 113.82 12.18 114.033 12.74C114.26 13.2867 114.373 13.8467 114.373 14.42C114.373 15.02 114.267 15.6 114.053 16.16C113.853 16.7067 113.567 17.2 113.193 17.64C112.82 18.0667 112.367 18.4133 111.833 18.68C111.313 18.9333 110.733 19.06 110.093 19.06H106.253V24H104.013ZM106.253 17.08H109.953C110.273 17.08 110.56 17.0133 110.813 16.88C111.08 16.7467 111.307 16.56 111.493 16.32C111.68 16.08 111.827 15.8 111.933 15.48C112.04 15.16 112.093 14.8067 112.093 14.42C112.093 14.02 112.033 13.66 111.913 13.34C111.793 13.02 111.627 12.7467 111.413 12.52C111.2 12.28 110.953 12.1 110.673 11.98C110.407 11.8467 110.127 11.78 109.833 11.78H106.253V17.08ZM118.074 24V9.8H120.314V22.02H127.934V24H118.074ZM141.094 22.02V24H131.354V9.8H140.914V11.78H133.594V15.82H139.934V17.68H133.594V22.02H141.094ZM145.005 24V9.8H151.185C151.825 9.8 152.411 9.93333 152.945 10.2C153.491 10.4667 153.958 10.82 154.345 11.26C154.731 11.6867 155.031 12.18 155.245 12.74C155.471 13.2867 155.585 13.8467 155.585 14.42C155.585 14.9 155.518 15.36 155.385 15.8C155.251 16.24 155.065 16.6467 154.825 17.02C154.585 17.3933 154.291 17.72 153.945 18C153.598 18.2667 153.218 18.4667 152.805 18.6L156.145 24H153.605L150.525 19.06H147.245V24H145.005ZM147.245 17.08H151.165C151.485 17.08 151.771 17.0133 152.025 16.88C152.291 16.7333 152.518 16.54 152.705 16.3C152.891 16.0467 153.038 15.76 153.145 15.44C153.251 15.12 153.305 14.78 153.305 14.42C153.305 14.06 153.238 13.72 153.105 13.4C152.985 13.08 152.818 12.8 152.605 12.56C152.405 12.32 152.165 12.1333 151.885 12C151.618 11.8533 151.338 11.78 151.045 11.78H147.245V17.08Z" fill="white"/>
<defs>
<filter id="filter0_d" x="0" y="0" width="40" height="40" filterUnits="userSpaceOnUse" color-interpolation-filters="sRGB">
<feFlood flood-opacity="0" result="BackgroundImageFix"/>
<feColorMatrix in="SourceAlpha" type="matrix" values="0 0 0 0 0 0 0 0 0 0 0 0 0 0 0 0 0 0 127 0"/>
<feOffset dx="-2" dy="2"/>
<feGaussianBlur stdDeviation="2"/>
<feColorMatrix type="matrix" values="0 0 0 0 0 0 0 0 0 0 0 0 0 0 0 0 0 0 0.08 0"/>
<feBlend mode="normal" in2="BackgroundImageFix" result="effect1_dropShadow"/>
<feBlend mode="normal" in="SourceGraphic" in2="effect1_dropShadow" result="shape"/>
</filter>
</defs>
</svg>
