<svg width="64" height="64" viewBox="0 0 64 64" fill="none" xmlns="http://www.w3.org/2000/svg">
<path fill-rule="evenodd" clip-rule="evenodd" d="M32 64C49.6731 64 64 49.6731 64 32C64 14.3269 49.6731 0 32 0C14.3269 0 0 14.3269 0 32C0 49.6731 14.3269 64 32 64ZM32 8C22.4837 8 14.7692 15.6751 14.7692 25.1429C14.7692 34.6106 22.4837 42.2857 32 42.2857C35.7037 42.2857 39.1344 41.1232 41.9437 39.1448C44.3025 37.4837 46.2232 35.2474 47.4993 32.6413L40.321 29.077L40.1007 28.9571C39.6388 29.9264 39.0064 30.7995 38.242 31.5381C36.6285 33.0972 34.4269 34.0571 32 34.0571C27.0515 34.0571 23.04 30.0661 23.04 25.1429C23.04 20.2196 27.0515 16.2286 32 16.2286C34.9804 16.2286 37.621 17.6763 39.2499 19.9036C39.5291 20.2854 39.7786 20.6901 39.995 21.1143L40.321 20.9516L47.3967 17.4383C45.262 13.2241 41.4307 10.0062 36.7955 8.67268C35.2732 8.23471 33.6642 8 32 8ZM32 56C27.5703 56 21.0604 44.6681 18.2717 39.5961C21.8523 42.9637 26.6838 45.0286 32 45.0286C37.3943 45.0286 42.2895 42.9026 45.8852 39.4469C43.1207 44.4508 36.4736 56 32 56Z" fill="white"/>
</svg>
