<svg width="48" height="72" viewBox="0 0 48 72" fill="none" xmlns="http://www.w3.org/2000/svg">
<g filter="url(#filter0_df)">
<path d="M16 46.4C16 47.2837 19.5817 48 24 48C28.4183 48 32 47.2837 32 46.4C32 46.3832 31.9987 46.3664 31.9961 46.3497C31.979 46.2386 31.9051 46.1302 31.7801 46.0259C31.4811 45.7763 30.8898 45.5495 30.0825 45.3607C27.7157 44.6621 24 44 24 44C24 44 20.2843 44.6621 17.9175 45.3607C17.1102 45.5495 16.5189 45.7763 16.2199 46.0259C16.0949 46.1302 16.021 46.2386 16.0039 46.3497C16.0013 46.3664 16 46.3832 16 46.4Z" fill="#021D39" fill-opacity="0.09"/>
</g>
<path d="M8 16C8 7.16344 15.1634 0 24 0C32.8366 0 40 7.16344 40 16C40 16.1681 39.9974 16.3356 39.9923 16.5025C39.958 17.6145 39.8102 18.6978 39.5602 19.7414C38.9623 22.2371 37.7796 24.5054 36.165 26.3933C31.4315 33.3788 24 40 24 40C24 40 16.5685 33.3788 11.835 26.3933C10.2204 24.5054 9.03771 22.2371 8.43982 19.7414C8.1898 18.6978 8.04205 17.6144 8.00774 16.5025C8.00259 16.3356 8 16.1681 8 16Z" fill="white"/>
<path d="M8 16C8 7.16344 15.1634 0 24 0C32.8366 0 40 7.16344 40 16C40 16.1681 39.9974 16.3356 39.9923 16.5025C39.958 17.6145 39.8102 18.6978 39.5602 19.7414C38.9623 22.2371 37.7796 24.5054 36.165 26.3933C31.4315 33.3788 24 40 24 40C24 40 16.5685 33.3788 11.835 26.3933C10.2204 24.5054 9.03771 22.2371 8.43982 19.7414C8.1898 18.6978 8.04205 17.6144 8.00774 16.5025C8.00259 16.3356 8 16.1681 8 16Z" fill="#1078E1"/>
<circle cx="24" cy="16" r="14" fill="white"/>
<mask id="mask0" mask-type="alpha" maskUnits="userSpaceOnUse" x="10" y="2" width="28" height="28">
<circle cx="24" cy="16" r="14" fill="white"/>
</mask>
<g mask="url(#mask0)">
<circle cx="24" cy="16" r="14" fill="white"/>
<path d="M22.8333 21L22.1825 21.7593L22.9601 22.4257L23.6079 21.6325L22.8333 21ZM16.3492 16.7593L22.1825 21.7593L23.4841 20.2407L17.6508 15.2407L16.3492 16.7593ZM23.6079 21.6325L31.7745 11.6325L30.2255 10.3675L22.0588 20.3675L23.6079 21.6325Z" fill="#1078E1"/>
</g>
<defs>
<filter id="filter0_df" x="0" y="36" width="48" height="36" filterUnits="userSpaceOnUse" color-interpolation-filters="sRGB">
<feFlood flood-opacity="0" result="BackgroundImageFix"/>
<feColorMatrix in="SourceAlpha" type="matrix" values="0 0 0 0 0 0 0 0 0 0 0 0 0 0 0 0 0 0 127 0"/>
<feOffset dy="8"/>
<feGaussianBlur stdDeviation="8"/>
<feColorMatrix type="matrix" values="0 0 0 0 0 0 0 0 0 0.0497608 0 0 0 0 0.1 0 0 0 0.16 0"/>
<feBlend mode="normal" in2="BackgroundImageFix" result="effect1_dropShadow"/>
<feBlend mode="normal" in="SourceGraphic" in2="effect1_dropShadow" result="shape"/>
<feGaussianBlur stdDeviation="1" result="effect2_foregroundBlur"/>
</filter>
</defs>
</svg>
