<svg width="24" height="24" viewBox="0 0 24 24" fill="none" xmlns="http://www.w3.org/2000/svg">
<path d="M20 9V8.5H20.5V9H20ZM7 20V20.5H6.5V20H7ZM20 20H20.5V20.5H20V20ZM4 8.875L3.5 8.87503L4 8.875ZM8.99991 17L9.3152 17.3881L8.97008 17.6685L8.65131 17.3584L8.99991 17ZM13.1469 6L13.5549 5.71101L13.1469 6ZM5.5 13L5.90694 12.7095L5.5 13ZM7 19.5H20V20.5H7V19.5ZM19.5 20V9H20.5V20H19.5ZM8.99991 4.5C7.85303 4.5 6.72424 4.87342 5.88982 5.59659C5.06553 6.31099 4.49992 7.39014 4.5 8.87497L3.5 8.87503C3.4999 7.10986 4.1842 5.75151 5.23489 4.84091C6.27544 3.93908 7.6467 3.5 8.99991 3.5V4.5ZM8.99991 17C8.68462 16.6119 8.68454 16.612 8.68449 16.612C8.6845 16.612 8.68446 16.6121 8.68447 16.6121C8.6845 16.612 8.6846 16.612 8.68478 16.6118C8.68514 16.6115 8.68579 16.611 8.68674 16.6102C8.68864 16.6087 8.69171 16.6061 8.69593 16.6026C8.70435 16.5957 8.71733 16.5849 8.73456 16.5705C8.76903 16.5415 8.82047 16.4978 8.88646 16.4404C9.01849 16.3254 9.20852 16.1556 9.4372 15.9389C9.89519 15.5047 10.505 14.8853 11.1134 14.1438C12.3493 12.6376 13.5 10.7229 13.5 8.875H14.5C14.5 11.0896 13.1507 13.2374 11.8865 14.7781C11.2449 15.56 10.6047 16.2101 10.1251 16.6646C9.88507 16.8922 9.68447 17.0715 9.54305 17.1946C9.47233 17.2562 9.41634 17.3038 9.37756 17.3363C9.35817 17.3526 9.34307 17.3651 9.33258 17.3738C9.32733 17.3781 9.32324 17.3815 9.32033 17.3839C9.31887 17.3851 9.31772 17.386 9.31686 17.3867C9.31643 17.3871 9.31608 17.3873 9.3158 17.3876C9.31567 17.3877 9.31552 17.3878 9.31545 17.3879C9.31532 17.388 9.3152 17.3881 8.99991 17ZM7.83345 8.875C7.83345 9.48447 8.34377 10 9.00009 10V11C7.81549 11 6.83345 10.0605 6.83345 8.875H7.83345ZM9.00009 10C9.65641 10 10.1667 9.48447 10.1667 8.875H11.1667C11.1667 10.0605 10.1847 11 9.00009 11V10ZM10.1667 8.875C10.1667 8.26553 9.65641 7.75 9.00009 7.75V6.75C10.1847 6.75 11.1667 7.68954 11.1667 8.875H10.1667ZM9.00009 7.75C8.34377 7.75 7.83345 8.26553 7.83345 8.875H6.83345C6.83345 7.68955 7.81549 6.75 9.00009 6.75V7.75ZM5.09306 13.2905C3.9857 11.7394 3.50009 10.4107 3.5 8.87503L4.5 8.87497C4.50007 10.1534 4.88869 11.2832 5.90694 12.7095L5.09306 13.2905ZM8.99991 3.5C10.7299 3.5 12.499 4.22014 13.5549 5.71101L12.7389 6.28899C11.9061 5.11319 10.4726 4.5 8.99991 4.5V3.5ZM5.90694 12.7095C6.58496 13.6592 7.44349 14.6413 8.13871 15.3914C8.48511 15.7651 8.78849 16.0786 9.005 16.2983C9.11322 16.4082 9.19962 16.4945 9.25873 16.5531C9.28828 16.5824 9.311 16.6048 9.32619 16.6197C9.33379 16.6272 9.3395 16.6328 9.34325 16.6364C9.34513 16.6383 9.34651 16.6396 9.34739 16.6405C9.34783 16.6409 9.34815 16.6412 9.34833 16.6414C9.34843 16.6415 9.34849 16.6415 9.34852 16.6416C9.34854 16.6416 9.34853 16.6416 9.34854 16.6416C9.34853 16.6416 9.34851 16.6416 8.99991 17C8.65131 17.3584 8.65127 17.3584 8.65123 17.3584C8.65121 17.3583 8.65116 17.3583 8.65111 17.3582C8.65101 17.3581 8.65088 17.358 8.65072 17.3579C8.65039 17.3575 8.64994 17.3571 8.64936 17.3565C8.64821 17.3554 8.64654 17.3538 8.64439 17.3517C8.64008 17.3475 8.63379 17.3413 8.62561 17.3333C8.60925 17.3172 8.58532 17.2937 8.55452 17.2631C8.49291 17.202 8.40378 17.1129 8.29264 17.0001C8.07043 16.7746 7.75986 16.4537 7.4053 16.0712C6.69859 15.3087 5.80717 14.2908 5.09306 13.2905L5.90694 12.7095ZM13.5 8.875C13.5 7.80279 13.2049 6.94699 12.7389 6.28899L13.5549 5.71101C14.1489 6.54968 14.5 7.61054 14.5 8.875H13.5ZM20 9.5H17V8.5H20V9.5ZM7.5 18V20H6.5V18H7.5Z" fill="white"/>
</svg>
