<svg width="22" height="26" viewBox="0 0 22 26" fill="none" xmlns="http://www.w3.org/2000/svg">
<path d="M1 20.4138C0.447715 20.4138 0 20.8615 0 21.4138C0 21.9661 0.447715 22.4138 1 22.4138V20.4138ZM21 22.4138C21.5523 22.4138 22 21.9661 22 21.4138C22 20.8615 21.5523 20.4138 21 20.4138V22.4138ZM10.2665 2.65517C10.2665 3.20746 10.7142 3.65517 11.2665 3.65517C11.8188 3.65517 12.2665 3.20746 12.2665 2.65517H10.2665ZM12.2665 1C12.2665 0.447715 11.8188 0 11.2665 0C10.7142 0 10.2665 0.447715 10.2665 1H12.2665ZM7.02446 21.6897C7.02446 24.0504 8.90415 26 11.2665 26V24C10.0478 24 9.02446 22.9854 9.02446 21.6897H7.02446ZM11.2665 26C13.6289 26 15.5086 24.0504 15.5086 21.6897H13.5086C13.5086 22.9854 12.4852 24 11.2665 24V26ZM1 22.4138H21V20.4138H1V22.4138ZM4.16137 20.8621V12.0345H2.16137V20.8621H4.16137ZM4.16137 12.0345C4.16137 7.99661 7.37034 4.75862 11.2665 4.75862V2.75862C6.22821 2.75862 2.16137 6.92997 2.16137 12.0345H4.16137ZM11.2665 4.75862C15.1712 4.75862 18.3717 7.99504 18.3717 12.0345H20.3717C20.3717 6.92974 16.3146 2.75862 11.2665 2.75862V4.75862ZM18.3717 12.0345V20.8621H20.3717V12.0345H18.3717ZM12.2665 2.65517V1H10.2665V2.65517H12.2665Z" fill="#A2A6AD"/>
</svg>
