<svg width="182" height="40" viewBox="0 0 182 40" fill="none" xmlns="http://www.w3.org/2000/svg">
<g filter="url(#filter0_d)">
<path fill-rule="evenodd" clip-rule="evenodd" d="M22 34C30.8366 34 38 26.8366 38 18C38 9.16344 30.8366 2 22 2C13.1634 2 6 9.16344 6 18C6 26.8366 13.1634 34 22 34ZM16.1573 21.376C17.3441 23.6303 20.1147 28.6667 22 28.6667C23.904 28.6667 26.7329 23.5337 27.9095 21.3097C26.3791 22.8456 24.2958 23.7905 22 23.7905C19.7374 23.7905 17.6812 22.8727 16.1573 21.376ZM14.6667 14.9524C14.6667 10.7445 17.9499 7.33333 22 7.33333C22.7083 7.33333 23.3931 7.43765 24.041 7.6323C26.0137 8.22498 27.6442 9.65514 28.5527 11.5281L25.5414 13.0896L25.4026 13.1619C25.3105 12.9734 25.2043 12.7935 25.0855 12.6238C24.3923 11.6339 23.2685 10.9905 22 10.9905C19.894 10.9905 18.1867 12.7643 18.1867 14.9524C18.1867 17.1405 19.894 18.9143 22 18.9143C23.0329 18.9143 23.9699 18.4876 24.6566 17.7947C24.9819 17.4664 25.251 17.0784 25.4476 16.6476L25.5414 16.7009L28.5964 18.285C28.0533 19.4433 27.2359 20.4372 26.232 21.1755C25.0364 22.0547 23.5763 22.5714 22 22.5714C17.9499 22.5714 14.6667 19.1603 14.6667 14.9524Z" fill="white"/>
</g>
<path d="M46.6299 11.52C46.6299 10.752 46.7679 9.99 47.0439 9.234C47.3199 8.466 47.7219 7.782 48.2499 7.182C48.7899 6.57 49.4439 6.078 50.2119 5.706C50.9799 5.334 51.8499 5.148 52.8219 5.148C53.9859 5.148 54.9819 5.406 55.8099 5.922C56.6379 6.438 57.2619 7.11 57.6819 7.938L56.0979 9C55.9179 8.616 55.7019 8.292 55.4499 8.028C55.1979 7.764 54.9219 7.554 54.6219 7.398C54.3219 7.242 54.0099 7.134 53.6859 7.074C53.3619 7.002 53.0499 6.966 52.7499 6.966C52.0779 6.966 51.4899 7.104 50.9859 7.38C50.4819 7.644 50.0559 7.99801 49.7079 8.44201C49.3719 8.88601 49.1139 9.384 48.9339 9.936C48.7659 10.488 48.6819 11.04 48.6819 11.592C48.6819 12.216 48.7839 12.81 48.9879 13.374C49.1919 13.938 49.4739 14.436 49.8339 14.868C50.2059 15.3 50.6439 15.648 51.1479 15.912C51.6519 16.164 52.2039 16.29 52.8039 16.29C53.1159 16.29 53.4339 16.254 53.7579 16.182C54.0939 16.098 54.4119 15.972 54.7119 15.804C55.0239 15.624 55.3059 15.402 55.5579 15.138C55.8219 14.874 56.0379 14.556 56.2059 14.184L57.8799 15.138C57.6759 15.618 57.3879 16.044 57.0159 16.416C56.6439 16.776 56.2239 17.082 55.7559 17.334C55.2879 17.586 54.7899 17.778 54.2619 17.91C53.7459 18.042 53.2359 18.108 52.7319 18.108C51.8319 18.108 51.0099 17.916 50.2659 17.532C49.5219 17.148 48.8799 16.65 48.3399 16.038C47.7999 15.414 47.3799 14.712 47.0799 13.932C46.7799 13.14 46.6299 12.336 46.6299 11.52ZM67.8115 18.09C66.8995 18.09 66.0655 17.91 65.3095 17.55C64.5655 17.178 63.9235 16.692 63.3835 16.092C62.8435 15.48 62.4235 14.784 62.1235 14.004C61.8355 13.224 61.6915 12.426 61.6915 11.61C61.6915 10.758 61.8475 9.942 62.1595 9.162C62.4715 8.382 62.8975 7.692 63.4375 7.092C63.9895 6.492 64.6375 6.018 65.3815 5.67C66.1375 5.31 66.9595 5.13 67.8475 5.13C68.7595 5.13 69.5875 5.322 70.3315 5.706C71.0875 6.078 71.7295 6.57 72.2575 7.182C72.7975 7.794 73.2115 8.49001 73.4995 9.27001C73.7995 10.038 73.9495 10.824 73.9495 11.628C73.9495 12.48 73.7935 13.296 73.4815 14.076C73.1815 14.856 72.7555 15.546 72.2035 16.146C71.6515 16.734 70.9975 17.208 70.2415 17.568C69.4975 17.916 68.6875 18.09 67.8115 18.09ZM63.7435 11.61C63.7435 12.21 63.8395 12.792 64.0315 13.356C64.2235 13.92 64.4935 14.418 64.8415 14.85C65.2015 15.282 65.6335 15.63 66.1375 15.894C66.6415 16.146 67.2055 16.272 67.8295 16.272C68.4775 16.272 69.0475 16.14 69.5395 15.876C70.0435 15.6 70.4695 15.24 70.8175 14.796C71.1655 14.352 71.4295 13.854 71.6095 13.302C71.7895 12.75 71.8795 12.186 71.8795 11.61C71.8795 10.998 71.7835 10.416 71.5915 9.86401C71.3995 9.30001 71.1235 8.808 70.7635 8.388C70.4155 7.956 69.9895 7.614 69.4855 7.362C68.9935 7.098 68.4415 6.966 67.8295 6.966C67.1815 6.966 66.6055 7.104 66.1015 7.38C65.5975 7.644 65.1715 7.992 64.8235 8.424C64.4755 8.856 64.2055 9.354 64.0135 9.918C63.8335 10.47 63.7435 11.034 63.7435 11.61ZM84.2447 16.272C84.9167 16.272 85.4747 16.14 85.9187 15.876C86.3627 15.612 86.7167 15.27 86.9807 14.85C87.2567 14.418 87.4487 13.932 87.5567 13.392C87.6767 12.84 87.7367 12.276 87.7367 11.7V5.22H89.7707V11.7C89.7707 12.576 89.6687 13.404 89.4647 14.184C89.2607 14.952 88.9367 15.63 88.4927 16.218C88.0487 16.794 87.4727 17.25 86.7647 17.586C86.0687 17.922 85.2287 18.09 84.2447 18.09C83.2247 18.09 82.3607 17.916 81.6527 17.568C80.9567 17.208 80.3927 16.734 79.9607 16.146C79.5287 15.546 79.2167 14.862 79.0247 14.094C78.8327 13.326 78.7367 12.528 78.7367 11.7V5.22H80.7527V11.7C80.7527 12.288 80.8067 12.858 80.9147 13.41C81.0347 13.95 81.2267 14.436 81.4907 14.868C81.7667 15.288 82.1267 15.63 82.5707 15.894C83.0267 16.146 83.5847 16.272 84.2447 16.272ZM95.3319 18V5.22H100.696C101.272 5.22 101.8 5.34 102.28 5.58C102.772 5.82 103.192 6.138 103.54 6.534C103.888 6.918 104.158 7.362 104.35 7.866C104.554 8.358 104.656 8.86201 104.656 9.37801C104.656 9.91801 104.56 10.44 104.368 10.944C104.188 11.436 103.93 11.88 103.594 12.276C103.258 12.66 102.85 12.972 102.37 13.212C101.902 13.44 101.38 13.554 100.804 13.554H97.3479V18H95.3319ZM97.3479 11.772H100.678C100.966 11.772 101.224 11.712 101.452 11.592C101.692 11.472 101.896 11.304 102.064 11.088C102.232 10.872 102.364 10.62 102.46 10.332C102.556 10.044 102.604 9.72601 102.604 9.37801C102.604 9.01801 102.55 8.694 102.442 8.406C102.334 8.118 102.184 7.872 101.992 7.668C101.8 7.452 101.578 7.29 101.326 7.182C101.086 7.062 100.834 7.002 100.57 7.002H97.3479V11.772ZM109.427 18V5.22H111.443V16.218H118.301V18H109.427ZM131.585 16.218V18H122.819V5.22H131.423V7.002H124.835V10.638H130.541V12.312H124.835V16.218H131.585ZM136.544 18V5.22H142.106C142.682 5.22 143.21 5.34 143.69 5.58C144.182 5.82 144.602 6.138 144.95 6.534C145.298 6.918 145.568 7.362 145.76 7.866C145.964 8.358 146.066 8.86201 146.066 9.37801C146.066 9.81001 146.006 10.224 145.886 10.62C145.766 11.016 145.598 11.382 145.382 11.718C145.166 12.054 144.902 12.348 144.59 12.6C144.278 12.84 143.936 13.02 143.564 13.14L146.57 18H144.284L141.512 13.554H138.56V18H136.544ZM138.56 11.772H142.088C142.376 11.772 142.634 11.712 142.862 11.592C143.102 11.46 143.306 11.286 143.474 11.07C143.642 10.842 143.774 10.584 143.87 10.296C143.966 10.008 144.014 9.70201 144.014 9.37801C144.014 9.05401 143.954 8.748 143.834 8.46C143.726 8.172 143.576 7.92 143.384 7.704C143.204 7.488 142.988 7.32 142.736 7.2C142.496 7.068 142.244 7.002 141.98 7.002H138.56V11.772Z" fill="white"/>
<path d="M49.5391 26.083H51.4201C51.8161 26.083 52.1461 26.204 52.4101 26.446C52.6814 26.688 52.8171 26.996 52.8171 27.37C52.8171 27.612 52.7548 27.832 52.6301 28.03C52.5128 28.2207 52.3588 28.3637 52.1681 28.459C52.4174 28.547 52.6154 28.6973 52.7621 28.91C52.9088 29.1153 52.9821 29.3573 52.9821 29.636C52.9821 30.0393 52.8391 30.3693 52.5531 30.626C52.2671 30.8753 51.9114 31 51.4861 31H49.5391V26.083ZM51.3541 28.162C51.5668 28.162 51.7391 28.096 51.8711 27.964C52.0104 27.8247 52.0801 27.6597 52.0801 27.469C52.0801 27.271 52.0141 27.106 51.8821 26.974C51.7501 26.842 51.5778 26.776 51.3651 26.776H50.2651V28.162H51.3541ZM51.4641 30.307C51.6988 30.307 51.8858 30.2373 52.0251 30.098C52.1718 29.9587 52.2451 29.779 52.2451 29.559C52.2451 29.339 52.1718 29.1593 52.0251 29.02C51.8858 28.8807 51.6988 28.811 51.4641 28.811H50.2651V30.307H51.4641ZM64.7605 31.088C64.2032 31.088 63.7559 30.9083 63.4185 30.549C63.0885 30.1897 62.9235 29.7057 62.9235 29.097V26.083H63.6495V29.141C63.6495 29.5077 63.7485 29.8083 63.9465 30.043C64.1445 30.2777 64.4159 30.395 64.7605 30.395C65.1125 30.395 65.3875 30.2777 65.5855 30.043C65.7835 29.8083 65.8825 29.5077 65.8825 29.141V26.083H66.6085V29.097C66.6085 29.691 66.4399 30.1713 66.1025 30.538C65.7725 30.9047 65.3252 31.088 64.7605 31.088ZM78.3014 31.088C77.8908 31.088 77.5241 30.9707 77.2014 30.736C76.8788 30.494 76.6588 30.1603 76.5414 29.735L77.2344 29.46C77.3004 29.7387 77.4251 29.966 77.6084 30.142C77.7991 30.3107 78.0338 30.395 78.3124 30.395C78.5544 30.395 78.7634 30.329 78.9394 30.197C79.1154 30.065 79.2034 29.8853 79.2034 29.658C79.2034 29.4527 79.1264 29.284 78.9724 29.152C78.8184 29.02 78.5581 28.888 78.1914 28.756L77.8834 28.646C77.1134 28.3673 76.7284 27.9237 76.7284 27.315C76.7284 26.941 76.8678 26.6293 77.1464 26.38C77.4324 26.1233 77.7991 25.995 78.2464 25.995C78.6718 25.995 79.0091 26.0977 79.2584 26.303C79.5151 26.5083 79.6874 26.743 79.7754 27.007L79.1154 27.282C79.0641 27.1133 78.9651 26.974 78.8184 26.864C78.6718 26.7467 78.4848 26.688 78.2574 26.688C78.0228 26.688 77.8284 26.7467 77.6744 26.864C77.5278 26.974 77.4544 27.1207 77.4544 27.304C77.4544 27.48 77.5241 27.6267 77.6634 27.744C77.8028 27.8613 78.0191 27.9713 78.3124 28.074L78.6204 28.184C79.0458 28.3307 79.3684 28.5177 79.5884 28.745C79.8158 28.965 79.9294 29.2657 79.9294 29.647C79.9294 29.9623 79.8488 30.23 79.6874 30.45C79.5334 30.6627 79.3318 30.824 79.0824 30.934C78.8331 31.0367 78.5728 31.088 78.3014 31.088ZM89.9886 26.083H90.7146V31H89.9886V26.083ZM101.033 26.083H101.902L104.19 29.735L104.146 28.767V26.083H104.872V31H104.113L101.726 27.161L101.759 28.129V31H101.033V26.083ZM115.193 26.083H118.163V26.776H115.919V28.195H117.943V28.888H115.919V30.307H118.163V31H115.193V26.083ZM129.774 31.088C129.363 31.088 128.997 30.9707 128.674 30.736C128.351 30.494 128.131 30.1603 128.014 29.735L128.707 29.46C128.773 29.7387 128.898 29.966 129.081 30.142C129.272 30.3107 129.506 30.395 129.785 30.395C130.027 30.395 130.236 30.329 130.412 30.197C130.588 30.065 130.676 29.8853 130.676 29.658C130.676 29.4527 130.599 29.284 130.445 29.152C130.291 29.02 130.031 28.888 129.664 28.756L129.356 28.646C128.586 28.3673 128.201 27.9237 128.201 27.315C128.201 26.941 128.34 26.6293 128.619 26.38C128.905 26.1233 129.272 25.995 129.719 25.995C130.144 25.995 130.482 26.0977 130.731 26.303C130.988 26.5083 131.16 26.743 131.248 27.007L130.588 27.282C130.537 27.1133 130.438 26.974 130.291 26.864C130.144 26.7467 129.957 26.688 129.73 26.688C129.495 26.688 129.301 26.7467 129.147 26.864C129 26.974 128.927 27.1207 128.927 27.304C128.927 27.48 128.997 27.6267 129.136 27.744C129.275 27.8613 129.492 27.9713 129.785 28.074L130.093 28.184C130.518 28.3307 130.841 28.5177 131.061 28.745C131.288 28.965 131.402 29.2657 131.402 29.647C131.402 29.9623 131.321 30.23 131.16 30.45C131.006 30.6627 130.804 30.824 130.555 30.934C130.306 31.0367 130.045 31.088 129.774 31.088ZM142.924 31.088C142.514 31.088 142.147 30.9707 141.824 30.736C141.502 30.494 141.282 30.1603 141.164 29.735L141.857 29.46C141.923 29.7387 142.048 29.966 142.231 30.142C142.422 30.3107 142.657 30.395 142.935 30.395C143.177 30.395 143.386 30.329 143.562 30.197C143.738 30.065 143.826 29.8853 143.826 29.658C143.826 29.4527 143.749 29.284 143.595 29.152C143.441 29.02 143.181 28.888 142.814 28.756L142.506 28.646C141.736 28.3673 141.351 27.9237 141.351 27.315C141.351 26.941 141.491 26.6293 141.769 26.38C142.055 26.1233 142.422 25.995 142.869 25.995C143.295 25.995 143.632 26.0977 143.881 26.303C144.138 26.5083 144.31 26.743 144.398 27.007L143.738 27.282C143.687 27.1133 143.588 26.974 143.441 26.864C143.295 26.7467 143.108 26.688 142.88 26.688C142.646 26.688 142.451 26.7467 142.297 26.864C142.151 26.974 142.077 27.1207 142.077 27.304C142.077 27.48 142.147 27.6267 142.286 27.744C142.426 27.8613 142.642 27.9713 142.935 28.074L143.243 28.184C143.669 28.3307 143.991 28.5177 144.211 28.745C144.439 28.965 144.552 29.2657 144.552 29.647C144.552 29.9623 144.472 30.23 144.31 30.45C144.156 30.6627 143.955 30.824 143.705 30.934C143.456 31.0367 143.196 31.088 142.924 31.088Z" fill="white"/>
<path d="M152 6.08333C152 5.48503 152.56 5 153.25 5H180.75C181.44 5 182 5.48503 182 6.08333V16.9167C182 17.515 181.44 18 180.75 18H153.25C152.56 18 152 17.515 152 16.9167V6.08333Z" fill="#007AFF"/>
<path d="M156.571 15V8.60156H158.812C159.589 8.60156 160.178 8.75098 160.579 9.0498C160.98 9.3457 161.181 9.78076 161.181 10.355C161.181 10.6685 161.101 10.9453 160.939 11.1855C160.778 11.4229 160.554 11.5972 160.267 11.7085C160.595 11.7905 160.853 11.9561 161.041 12.2051C161.231 12.4541 161.326 12.7588 161.326 13.1191C161.326 13.7344 161.13 14.2002 160.737 14.5166C160.345 14.833 159.785 14.9941 159.059 15H156.571ZM157.89 12.2139V13.9409H159.019C159.33 13.9409 159.571 13.8677 159.744 13.7212C159.92 13.5718 160.008 13.3667 160.008 13.106C160.008 12.52 159.705 12.2227 159.098 12.2139H157.89ZM157.89 11.2822H158.865C159.53 11.2705 159.863 11.0054 159.863 10.4868C159.863 10.1968 159.778 9.98877 159.608 9.86279C159.441 9.73389 159.176 9.66943 158.812 9.66943H157.89V11.2822ZM166.169 12.2271H163.638V13.9409H166.608V15H162.319V8.60156H166.6V9.66943H163.638V11.1943H166.169V12.2271ZM172.286 9.66943H170.326V15H169.008V9.66943H167.074V8.60156H172.286V9.66943ZM176.127 13.6816H173.815L173.376 15H171.974L174.356 8.60156H175.578L177.973 15H176.571L176.127 13.6816ZM174.171 12.6138H175.771L174.967 10.2188L174.171 12.6138Z" fill="white"/>
<defs>
<filter id="filter0_d" x="0" y="0" width="40" height="40" filterUnits="userSpaceOnUse" color-interpolation-filters="sRGB">
<feFlood flood-opacity="0" result="BackgroundImageFix"/>
<feColorMatrix in="SourceAlpha" type="matrix" values="0 0 0 0 0 0 0 0 0 0 0 0 0 0 0 0 0 0 127 0"/>
<feOffset dx="-2" dy="2"/>
<feGaussianBlur stdDeviation="2"/>
<feColorMatrix type="matrix" values="0 0 0 0 0 0 0 0 0 0 0 0 0 0 0 0 0 0 0.08 0"/>
<feBlend mode="normal" in2="BackgroundImageFix" result="effect1_dropShadow"/>
<feBlend mode="normal" in="SourceGraphic" in2="effect1_dropShadow" result="shape"/>
</filter>
</defs>
</svg>
