<svg width="56" height="56" viewBox="0 0 56 56" fill="none" xmlns="http://www.w3.org/2000/svg">
<g filter="url(#filter0_d)">
<path fill-rule="evenodd" clip-rule="evenodd" d="M28 44C36.8366 44 44 36.8366 44 28C44 19.1634 36.8366 12 28 12C19.1634 12 12 19.1634 12 28C12 36.8366 19.1634 44 28 44ZM22.1573 31.376C23.3441 33.6303 26.1147 38.6667 28 38.6667C29.904 38.6667 32.7329 33.5337 33.9095 31.3097C32.3791 32.8456 30.2958 33.7905 28 33.7905C25.7374 33.7905 23.6812 32.8727 22.1573 31.376ZM20.6667 24.9524C20.6667 20.7445 23.9499 17.3333 28 17.3333C28.7083 17.3333 29.3931 17.4377 30.041 17.6323C32.0137 18.225 33.6442 19.6551 34.5527 21.5281L31.5414 23.0896L31.4026 23.1619C31.3105 22.9734 31.2043 22.7935 31.0855 22.6238C30.3923 21.6339 29.2685 20.9905 28 20.9905C25.894 20.9905 24.1867 22.7643 24.1867 24.9524C24.1867 27.1405 25.894 28.9143 28 28.9143C29.0329 28.9143 29.9699 28.4876 30.6566 27.7947C30.9819 27.4664 31.251 27.0784 31.4476 26.6476L31.5414 26.7009L34.5964 28.285C34.0533 29.4433 33.2359 30.4372 32.232 31.1755C31.0364 32.0547 29.5763 32.5714 28 32.5714C23.9499 32.5714 20.6667 29.1603 20.6667 24.9524Z" fill="white"/>
</g>
<defs>
<filter id="filter0_d" x="6" y="10" width="40" height="40" filterUnits="userSpaceOnUse" color-interpolation-filters="sRGB">
<feFlood flood-opacity="0" result="BackgroundImageFix"/>
<feColorMatrix in="SourceAlpha" type="matrix" values="0 0 0 0 0 0 0 0 0 0 0 0 0 0 0 0 0 0 127 0"/>
<feOffset dx="-2" dy="2"/>
<feGaussianBlur stdDeviation="2"/>
<feColorMatrix type="matrix" values="0 0 0 0 0 0 0 0 0 0 0 0 0 0 0 0 0 0 0.08 0"/>
<feBlend mode="normal" in2="BackgroundImageFix" result="effect1_dropShadow"/>
<feBlend mode="normal" in="SourceGraphic" in2="effect1_dropShadow" result="shape"/>
</filter>
</defs>
</svg>
